<?xml version="1.0" encoding="utf-8" standalone="no"?>
<!DOCTYPE svg PUBLIC "-//W3C//DTD SVG 1.1//EN"
  "http://www.w3.org/Graphics/SVG/1.1/DTD/svg11.dtd">
<svg xmlns:xlink="http://www.w3.org/1999/xlink" width="236.16pt" height="236.16pt" viewBox="0 0 236.16 236.16" xmlns="http://www.w3.org/2000/svg" version="1.1">
 <metadata>
  <rdf:RDF xmlns:dc="http://purl.org/dc/elements/1.1/" xmlns:cc="http://creativecommons.org/ns#" xmlns:rdf="http://www.w3.org/1999/02/22-rdf-syntax-ns#">
   <cc:Work>
    <dc:type rdf:resource="http://purl.org/dc/dcmitype/StillImage"/>
    <dc:date>2026-01-03T10:46:10.393765</dc:date>
    <dc:format>image/svg+xml</dc:format>
    <dc:creator>
     <cc:Agent>
      <dc:title>Matplotlib v3.7.2, https://matplotlib.org/</dc:title>
     </cc:Agent>
    </dc:creator>
   </cc:Work>
  </rdf:RDF>
 </metadata>
 <defs>
  <style type="text/css">*{stroke-linejoin: round; stroke-linecap: butt}</style>
 </defs>
 <g id="figure_1">
  <g id="patch_1">
   <path d="M 0 236.16 
L 236.16 236.16 
L 236.16 0 
L 0 0 
z
" style="fill: #ffffff"/>
  </g>
  <g id="axes_1">
   <g id="patch_2">
    <path d="M 118.08 101.448 
L 103.676265 109.764 
L 103.676265 126.396 
L 118.08 134.712 
L 132.483735 126.396 
L 132.483735 109.764 
z
" clip-path="url(#p24284760eb)" style="fill: #800026; stroke: #800026; stroke-linejoin: miter"/>
   </g>
   <g id="patch_3">
    <path d="M 146.887469 101.448 
L 132.483735 109.764 
L 132.483735 126.396 
L 146.887469 134.712 
L 161.291204 126.396 
L 161.291204 109.764 
z
" clip-path="url(#p24284760eb)" style="fill: #fd6e33; stroke: #fd6e33; stroke-linejoin: miter"/>
   </g>
   <g id="patch_4">
    <path d="M 89.272531 101.448 
L 74.868796 109.764 
L 74.868796 126.396 
L 89.272531 134.712 
L 103.676265 126.396 
L 103.676265 109.764 
z
" clip-path="url(#p24284760eb)" style="fill: #fea245; stroke: #fd6e33; stroke-linejoin: miter"/>
   </g>
   <g id="patch_5">
    <path d="M 103.676265 76.5 
L 89.272531 84.816 
L 89.272531 101.448 
L 103.676265 109.764 
L 118.08 101.448 
L 118.08 84.816 
z
" clip-path="url(#p24284760eb)" style="fill: #fd7435; stroke: #fd6e33; stroke-linejoin: miter"/>
   </g>
   <g id="patch_6">
    <path d="M 132.483735 126.396 
L 118.08 134.712 
L 118.08 151.344 
L 132.483735 159.66 
L 146.887469 151.344 
L 146.887469 134.712 
z
" clip-path="url(#p24284760eb)" style="fill: #fff5b3; stroke: #fd6e33; stroke-linejoin: miter"/>
   </g>
   <g id="patch_7">
    <path d="M 103.676265 126.396 
L 89.272531 134.712 
L 89.272531 151.344 
L 103.676265 159.66 
L 118.08 151.344 
L 118.08 134.712 
z
" clip-path="url(#p24284760eb)" style="fill: #fff8ba; stroke: #fd6e33; stroke-linejoin: miter"/>
   </g>
   <g id="patch_8">
    <path d="M 132.483735 76.5 
L 118.08 84.816 
L 118.08 101.448 
L 132.483735 109.764 
L 146.887469 101.448 
L 146.887469 84.816 
z
" clip-path="url(#p24284760eb)" style="fill: #f33b25; stroke: #fd6e33; stroke-linejoin: miter"/>
   </g>
   <g id="patch_9">
    <path d="M 175.694938 101.448 
L 161.291204 109.764 
L 161.291204 126.396 
L 175.694938 134.712 
L 190.098673 126.396 
L 190.098673 109.764 
z
" clip-path="url(#p24284760eb)" style="fill: #d6111f; stroke: #fd6e33; stroke-linejoin: miter"/>
   </g>
   <g id="patch_10">
    <path d="M 161.291204 76.5 
L 146.887469 84.816 
L 146.887469 101.448 
L 161.291204 109.764 
L 175.694938 101.448 
L 175.694938 84.816 
z
" clip-path="url(#p24284760eb)" style="fill: #fed470; stroke: #fd6e33; stroke-linejoin: miter"/>
   </g>
   <g id="patch_11">
    <path d="M 60.465062 101.448 
L 46.061327 109.764 
L 46.061327 126.396 
L 60.465062 134.712 
L 74.868796 126.396 
L 74.868796 109.764 
z
" clip-path="url(#p24284760eb)" style="fill: #fecc68; stroke: #fd6e33; stroke-linejoin: miter"/>
   </g>
   <g id="patch_12">
    <path d="M 74.868796 126.396 
L 60.465062 134.712 
L 60.465062 151.344 
L 74.868796 159.66 
L 89.272531 151.344 
L 89.272531 134.712 
z
" clip-path="url(#p24284760eb)" style="fill: #ffffcc; stroke: #fd6e33; stroke-linejoin: miter"/>
   </g>
   <g id="patch_13">
    <path d="M 89.272531 51.552 
L 74.868796 59.868 
L 74.868796 76.5 
L 89.272531 84.816 
L 103.676265 76.5 
L 103.676265 59.868 
z
" clip-path="url(#p24284760eb)" style="fill: #fee187; stroke: #fd6e33; stroke-linejoin: miter"/>
   </g>
   <g id="patch_14">
    <path d="M 74.868796 76.5 
L 60.465062 84.816 
L 60.465062 101.448 
L 74.868796 109.764 
L 89.272531 101.448 
L 89.272531 84.816 
z
" clip-path="url(#p24284760eb)" style="fill: #d6111f; stroke: #fd6e33; stroke-linejoin: miter"/>
   </g>
   <g id="patch_15">
    <path d="M 146.887469 151.344 
L 132.483735 159.66 
L 132.483735 176.292 
L 146.887469 184.608 
L 161.291204 176.292 
L 161.291204 159.66 
z
" clip-path="url(#p24284760eb)" style="fill: #ffffcc; stroke: #fd6e33; stroke-linejoin: miter"/>
   </g>
   <g id="patch_16">
    <path d="M 161.291204 126.396 
L 146.887469 134.712 
L 146.887469 151.344 
L 161.291204 159.66 
L 175.694938 151.344 
L 175.694938 134.712 
z
" clip-path="url(#p24284760eb)" style="fill: #fecc68; stroke: #fd6e33; stroke-linejoin: miter"/>
   </g>
   <g id="patch_17">
    <path d="M 89.272531 151.344 
L 74.868796 159.66 
L 74.868796 176.292 
L 89.272531 184.608 
L 103.676265 176.292 
L 103.676265 159.66 
z
" clip-path="url(#p24284760eb)" style="fill: #ffffcc; stroke: #fd6e33; stroke-linejoin: miter"/>
   </g>
   <g id="patch_18">
    <path d="M 118.08 151.344 
L 103.676265 159.66 
L 103.676265 176.292 
L 118.08 184.608 
L 132.483735 176.292 
L 132.483735 159.66 
z
" clip-path="url(#p24284760eb)" style="fill: #ffffcc; stroke: #fd6e33; stroke-linejoin: miter"/>
   </g>
   <g id="patch_19">
    <path d="M 146.887469 51.552 
L 132.483735 59.868 
L 132.483735 76.5 
L 146.887469 84.816 
L 161.291204 76.5 
L 161.291204 59.868 
z
" clip-path="url(#p24284760eb)" style="fill: #ffeea3; stroke: #fd6e33; stroke-linejoin: miter"/>
   </g>
   <g id="patch_20">
    <path d="M 118.08 51.552 
L 103.676265 59.868 
L 103.676265 76.5 
L 118.08 84.816 
L 132.483735 76.5 
L 132.483735 59.868 
z
" clip-path="url(#p24284760eb)" style="fill: #fff7b7; stroke: #fd6e33; stroke-linejoin: miter"/>
   </g>
   <g id="patch_21">
    <path d="M 204.502407 101.448 
L 190.098673 109.764 
L 190.098673 126.396 
L 204.502407 134.712 
L 218.906142 126.396 
L 218.906142 109.764 
z
" clip-path="url(#p24284760eb)" style="fill: #fd7435; stroke: #fd6e33; stroke-linejoin: miter"/>
   </g>
   <g id="patch_22">
    <path d="M 190.098673 76.5 
L 175.694938 84.816 
L 175.694938 101.448 
L 190.098673 109.764 
L 204.502407 101.448 
L 204.502407 84.816 
z
" clip-path="url(#p24284760eb)" style="fill: #fee187; stroke: #fd6e33; stroke-linejoin: miter"/>
   </g>
   <g id="patch_23">
    <path d="M 175.694938 51.552 
L 161.291204 59.868 
L 161.291204 76.5 
L 175.694938 84.816 
L 190.098673 76.5 
L 190.098673 59.868 
z
" clip-path="url(#p24284760eb)" style="fill: #ffe895; stroke: #fd6e33; stroke-linejoin: miter"/>
   </g>
   <g id="patch_24">
    <path d="M 31.657593 101.448 
L 17.253858 109.764 
L 17.253858 126.396 
L 31.657593 134.712 
L 46.061327 126.396 
L 46.061327 109.764 
z
" clip-path="url(#p24284760eb)" style="fill: #fff5b3; stroke: #fd6e33; stroke-linejoin: miter"/>
   </g>
   <g id="patch_25">
    <path d="M 46.061327 126.396 
L 31.657593 134.712 
L 31.657593 151.344 
L 46.061327 159.66 
L 60.465062 151.344 
L 60.465062 134.712 
z
" clip-path="url(#p24284760eb)" style="fill: #ffffcc; stroke: #fd6e33; stroke-linejoin: miter"/>
   </g>
   <g id="patch_26">
    <path d="M 60.465062 151.344 
L 46.061327 159.66 
L 46.061327 176.292 
L 60.465062 184.608 
L 74.868796 176.292 
L 74.868796 159.66 
z
" clip-path="url(#p24284760eb)" style="fill: #ffffcc; stroke: #fd6e33; stroke-linejoin: miter"/>
   </g>
   <g id="patch_27">
    <path d="M 74.868796 26.604 
L 60.465062 34.92 
L 60.465062 51.552 
L 74.868796 59.868 
L 89.272531 51.552 
L 89.272531 34.92 
z
" clip-path="url(#p24284760eb)" style="fill: #ffe895; stroke: #fd6e33; stroke-linejoin: miter"/>
   </g>
   <g id="patch_28">
    <path d="M 60.465062 51.552 
L 46.061327 59.868 
L 46.061327 76.5 
L 60.465062 84.816 
L 74.868796 76.5 
L 74.868796 59.868 
z
" clip-path="url(#p24284760eb)" style="fill: #fed470; stroke: #fd6e33; stroke-linejoin: miter"/>
   </g>
   <g id="patch_29">
    <path d="M 46.061327 76.5 
L 31.657593 84.816 
L 31.657593 101.448 
L 46.061327 109.764 
L 60.465062 101.448 
L 60.465062 84.816 
z
" clip-path="url(#p24284760eb)" style="fill: #fd6e33; stroke: #fd6e33; stroke-linejoin: miter"/>
   </g>
   <g id="patch_30">
    <path d="M 161.291204 176.292 
L 146.887469 184.608 
L 146.887469 201.24 
L 161.291204 209.556 
L 175.694938 201.24 
L 175.694938 184.608 
z
" clip-path="url(#p24284760eb)" style="fill: #ffffcc; stroke: #fd6e33; stroke-linejoin: miter"/>
   </g>
   <g id="patch_31">
    <path d="M 175.694938 151.344 
L 161.291204 159.66 
L 161.291204 176.292 
L 175.694938 184.608 
L 190.098673 176.292 
L 190.098673 159.66 
z
" clip-path="url(#p24284760eb)" style="fill: #ffffcc; stroke: #fd6e33; stroke-linejoin: miter"/>
   </g>
   <g id="patch_32">
    <path d="M 190.098673 126.396 
L 175.694938 134.712 
L 175.694938 151.344 
L 190.098673 159.66 
L 204.502407 151.344 
L 204.502407 134.712 
z
" clip-path="url(#p24284760eb)" style="fill: #fea245; stroke: #fd6e33; stroke-linejoin: miter"/>
   </g>
   <g id="patch_33">
    <path d="M 74.868796 176.292 
L 60.465062 184.608 
L 60.465062 201.24 
L 74.868796 209.556 
L 89.272531 201.24 
L 89.272531 184.608 
z
" clip-path="url(#p24284760eb)" style="fill: #ffffcc; stroke: #fd6e33; stroke-linejoin: miter"/>
   </g>
   <g id="patch_34">
    <path d="M 103.676265 176.292 
L 89.272531 184.608 
L 89.272531 201.24 
L 103.676265 209.556 
L 118.08 201.24 
L 118.08 184.608 
z
" clip-path="url(#p24284760eb)" style="fill: #ffffcc; stroke: #fd6e33; stroke-linejoin: miter"/>
   </g>
   <g id="patch_35">
    <path d="M 132.483735 176.292 
L 118.08 184.608 
L 118.08 201.24 
L 132.483735 209.556 
L 146.887469 201.24 
L 146.887469 184.608 
z
" clip-path="url(#p24284760eb)" style="fill: #ffffcc; stroke: #fd6e33; stroke-linejoin: miter"/>
   </g>
   <g id="patch_36">
    <path d="M 161.291204 26.604 
L 146.887469 34.92 
L 146.887469 51.552 
L 161.291204 59.868 
L 175.694938 51.552 
L 175.694938 34.92 
z
" clip-path="url(#p24284760eb)" style="fill: #fff1ab; stroke: #fd6e33; stroke-linejoin: miter"/>
   </g>
   <g id="patch_37">
    <path d="M 132.483735 26.604 
L 118.08 34.92 
L 118.08 51.552 
L 132.483735 59.868 
L 146.887469 51.552 
L 146.887469 34.92 
z
" clip-path="url(#p24284760eb)" style="fill: #fff1a9; stroke: #fd6e33; stroke-linejoin: miter"/>
   </g>
   <g id="patch_38">
    <path d="M 103.676265 26.604 
L 89.272531 34.92 
L 89.272531 51.552 
L 103.676265 59.868 
L 118.08 51.552 
L 118.08 34.92 
z
" clip-path="url(#p24284760eb)" style="fill: #fff3af; stroke: #fd6e33; stroke-linejoin: miter"/>
   </g>
   <g id="text_1">
    <!-- G$\flat$ -->
    <g style="fill: #ffffff" transform="translate(111.04875 121.184297) scale(0.1125 -0.1125)">
     <defs>
      <path id="DejaVuSans-47" d="M 3809 666 
L 3809 1919 
L 2778 1919 
L 2778 2438 
L 4434 2438 
L 4434 434 
Q 4069 175 3628 42 
Q 3188 -91 2688 -91 
Q 1594 -91 976 548 
Q 359 1188 359 2328 
Q 359 3472 976 4111 
Q 1594 4750 2688 4750 
Q 3144 4750 3555 4637 
Q 3966 4525 4313 4306 
L 4313 3634 
Q 3963 3931 3569 4081 
Q 3175 4231 2741 4231 
Q 1884 4231 1454 3753 
Q 1025 3275 1025 2328 
Q 1025 1384 1454 906 
Q 1884 428 2741 428 
Q 3075 428 3337 486 
Q 3600 544 3809 666 
z
" transform="scale(0.015625)"/>
      <path id="DejaVuSans-266d" d="M 584 4678 
L 725 4678 
L 741 4659 
L 741 1656 
L 750 1656 
Q 1281 2397 1734 2397 
Q 2444 2388 2506 1584 
Q 2416 256 575 -19 
L 566 -9 
L 566 4659 
L 584 4678 
z
M 741 1322 
L 741 213 
Q 2047 522 2047 1475 
Q 2050 1516 2050 1553 
Q 2050 2016 1584 2041 
Q 1213 2041 741 1322 
z
" transform="scale(0.015625)"/>
     </defs>
     <use xlink:href="#DejaVuSans-47" transform="translate(0 0.78125)"/>
     <use xlink:href="#DejaVuSans-266d" transform="translate(77.490234 0.78125)"/>
    </g>
   </g>
   <g id="text_2">
    <!-- D$\flat$ -->
    <g transform="translate(139.856219 121.184297) scale(0.1125 -0.1125)">
     <defs>
      <path id="DejaVuSans-44" d="M 1259 4147 
L 1259 519 
L 2022 519 
Q 2988 519 3436 956 
Q 3884 1394 3884 2338 
Q 3884 3275 3436 3711 
Q 2988 4147 2022 4147 
L 1259 4147 
z
M 628 4666 
L 1925 4666 
Q 3281 4666 3915 4102 
Q 4550 3538 4550 2338 
Q 4550 1131 3912 565 
Q 3275 0 1925 0 
L 628 0 
L 628 4666 
z
" transform="scale(0.015625)"/>
     </defs>
     <use xlink:href="#DejaVuSans-44" transform="translate(0 0.90625)"/>
     <use xlink:href="#DejaVuSans-266d" transform="translate(77.001953 0.90625)"/>
    </g>
   </g>
   <g id="text_3">
    <!-- C$\flat$ -->
    <g transform="translate(82.691281 121.184297) scale(0.1125 -0.1125)">
     <defs>
      <path id="DejaVuSans-43" d="M 4122 4306 
L 4122 3641 
Q 3803 3938 3442 4084 
Q 3081 4231 2675 4231 
Q 1875 4231 1450 3742 
Q 1025 3253 1025 2328 
Q 1025 1406 1450 917 
Q 1875 428 2675 428 
Q 3081 428 3442 575 
Q 3803 722 4122 1019 
L 4122 359 
Q 3791 134 3420 21 
Q 3050 -91 2638 -91 
Q 1578 -91 968 557 
Q 359 1206 359 2328 
Q 359 3453 968 4101 
Q 1578 4750 2638 4750 
Q 3056 4750 3426 4639 
Q 3797 4528 4122 4306 
z
" transform="scale(0.015625)"/>
     </defs>
     <use xlink:href="#DejaVuSans-43" transform="translate(0 0.78125)"/>
     <use xlink:href="#DejaVuSans-266d" transform="translate(69.824219 0.78125)"/>
    </g>
   </g>
   <g id="text_4">
    <!-- E$\flat$ -->
    <g transform="translate(97.432515 96.236297) scale(0.1125 -0.1125)">
     <defs>
      <path id="DejaVuSans-45" d="M 628 4666 
L 3578 4666 
L 3578 4134 
L 1259 4134 
L 1259 2753 
L 3481 2753 
L 3481 2222 
L 1259 2222 
L 1259 531 
L 3634 531 
L 3634 0 
L 628 0 
L 628 4666 
z
" transform="scale(0.015625)"/>
     </defs>
     <use xlink:href="#DejaVuSans-45" transform="translate(0 0.90625)"/>
     <use xlink:href="#DejaVuSans-266d" transform="translate(63.183594 0.90625)"/>
    </g>
   </g>
   <g id="text_5">
    <!-- B$\flat$$\flat$ -->
    <g transform="translate(123.314985 146.132297) scale(0.1125 -0.1125)">
     <defs>
      <path id="DejaVuSans-42" d="M 1259 2228 
L 1259 519 
L 2272 519 
Q 2781 519 3026 730 
Q 3272 941 3272 1375 
Q 3272 1813 3026 2020 
Q 2781 2228 2272 2228 
L 1259 2228 
z
M 1259 4147 
L 1259 2741 
L 2194 2741 
Q 2656 2741 2882 2914 
Q 3109 3088 3109 3444 
Q 3109 3797 2882 3972 
Q 2656 4147 2194 4147 
L 1259 4147 
z
M 628 4666 
L 2241 4666 
Q 2963 4666 3353 4366 
Q 3744 4066 3744 3513 
Q 3744 3084 3544 2831 
Q 3344 2578 2956 2516 
Q 3422 2416 3680 2098 
Q 3938 1781 3938 1306 
Q 3938 681 3513 340 
Q 3088 0 2303 0 
L 628 0 
L 628 4666 
z
" transform="scale(0.015625)"/>
     </defs>
     <use xlink:href="#DejaVuSans-42" transform="translate(0 0.90625)"/>
     <use xlink:href="#DejaVuSans-266d" transform="translate(68.603516 0.90625)"/>
     <use xlink:href="#DejaVuSans-266d" transform="translate(115.771484 0.90625)"/>
    </g>
   </g>
   <g id="text_6">
    <!-- E$\flat$$\flat$ -->
    <g transform="translate(94.788765 146.132297) scale(0.1125 -0.1125)">
     <use xlink:href="#DejaVuSans-45" transform="translate(0 0.90625)"/>
     <use xlink:href="#DejaVuSans-266d" transform="translate(63.183594 0.90625)"/>
     <use xlink:href="#DejaVuSans-266d" transform="translate(110.351562 0.90625)"/>
    </g>
   </g>
   <g id="text_7">
    <!-- B$\flat$ -->
    <g style="fill: #ffffff" transform="translate(125.958735 96.236297) scale(0.1125 -0.1125)">
     <use xlink:href="#DejaVuSans-42" transform="translate(0 0.90625)"/>
     <use xlink:href="#DejaVuSans-266d" transform="translate(68.603516 0.90625)"/>
    </g>
   </g>
   <g id="text_8">
    <!-- A$\flat$ -->
    <g style="fill: #ffffff" transform="translate(169.169938 121.184297) scale(0.1125 -0.1125)">
     <defs>
      <path id="DejaVuSans-41" d="M 2188 4044 
L 1331 1722 
L 3047 1722 
L 2188 4044 
z
M 1831 4666 
L 2547 4666 
L 4325 0 
L 3669 0 
L 3244 1197 
L 1141 1197 
L 716 0 
L 50 0 
L 1831 4666 
z
" transform="scale(0.015625)"/>
     </defs>
     <use xlink:href="#DejaVuSans-41" transform="translate(0 0.90625)"/>
     <use xlink:href="#DejaVuSans-266d" transform="translate(68.408203 0.90625)"/>
    </g>
   </g>
   <g id="text_9">
    <!-- F -->
    <g transform="translate(158.05595 96.236297) scale(0.1125 -0.1125)">
     <defs>
      <path id="DejaVuSans-46" d="M 628 4666 
L 3309 4666 
L 3309 4134 
L 1259 4134 
L 1259 2759 
L 3109 2759 
L 3109 2228 
L 1259 2228 
L 1259 0 
L 628 0 
L 628 4666 
z
" transform="scale(0.015625)"/>
     </defs>
     <use xlink:href="#DejaVuSans-46"/>
    </g>
   </g>
   <g id="text_10">
    <!-- F$\flat$ -->
    <g transform="translate(54.558812 121.184297) scale(0.1125 -0.1125)">
     <use xlink:href="#DejaVuSans-46" transform="translate(0 0.90625)"/>
     <use xlink:href="#DejaVuSans-266d" transform="translate(57.519531 0.90625)"/>
    </g>
   </g>
   <g id="text_11">
    <!-- A$\flat$$\flat$ -->
    <g transform="translate(65.700046 146.132297) scale(0.1125 -0.1125)">
     <use xlink:href="#DejaVuSans-41" transform="translate(0 0.90625)"/>
     <use xlink:href="#DejaVuSans-266d" transform="translate(68.408203 0.90625)"/>
     <use xlink:href="#DejaVuSans-266d" transform="translate(115.576172 0.90625)"/>
    </g>
   </g>
   <g id="text_12">
    <!-- C -->
    <g transform="translate(85.344699 71.288297) scale(0.1125 -0.1125)">
     <use xlink:href="#DejaVuSans-43"/>
    </g>
   </g>
   <g id="text_13">
    <!-- A$\flat$ -->
    <g style="fill: #ffffff" transform="translate(68.343796 96.236297) scale(0.1125 -0.1125)">
     <use xlink:href="#DejaVuSans-41" transform="translate(0 0.90625)"/>
     <use xlink:href="#DejaVuSans-266d" transform="translate(68.408203 0.90625)"/>
    </g>
   </g>
   <g id="text_14">
    <!-- D$\flat$$\flat$ -->
    <g transform="translate(137.212469 171.080297) scale(0.1125 -0.1125)">
     <use xlink:href="#DejaVuSans-44" transform="translate(0 0.90625)"/>
     <use xlink:href="#DejaVuSans-266d" transform="translate(77.001953 0.90625)"/>
     <use xlink:href="#DejaVuSans-266d" transform="translate(124.169922 0.90625)"/>
    </g>
   </g>
   <g id="text_15">
    <!-- F$\flat$ -->
    <g transform="translate(155.384954 146.132297) scale(0.1125 -0.1125)">
     <use xlink:href="#DejaVuSans-46" transform="translate(0 0.90625)"/>
     <use xlink:href="#DejaVuSans-266d" transform="translate(57.519531 0.90625)"/>
    </g>
   </g>
   <g id="text_16">
    <!-- C$\flat$$\flat$ -->
    <g transform="translate(79.991281 171.080297) scale(0.1125 -0.1125)">
     <use xlink:href="#DejaVuSans-43" transform="translate(0 0.78125)"/>
     <use xlink:href="#DejaVuSans-266d" transform="translate(69.824219 0.78125)"/>
     <use xlink:href="#DejaVuSans-266d" transform="translate(116.992188 0.78125)"/>
    </g>
   </g>
   <g id="text_17">
    <!-- G$\flat$$\flat$ -->
    <g transform="translate(108.405 171.080297) scale(0.1125 -0.1125)">
     <use xlink:href="#DejaVuSans-47" transform="translate(0 0.78125)"/>
     <use xlink:href="#DejaVuSans-266d" transform="translate(77.490234 0.78125)"/>
     <use xlink:href="#DejaVuSans-266d" transform="translate(124.658203 0.78125)"/>
    </g>
   </g>
   <g id="text_18">
    <!-- D -->
    <g transform="translate(142.556219 71.288297) scale(0.1125 -0.1125)">
     <use xlink:href="#DejaVuSans-44"/>
    </g>
   </g>
   <g id="text_19">
    <!-- G -->
    <g transform="translate(113.721504 71.288297) scale(0.1125 -0.1125)">
     <use xlink:href="#DejaVuSans-47"/>
    </g>
   </g>
   <g id="text_20">
    <!-- E$\flat$ -->
    <g transform="translate(198.258657 121.184297) scale(0.1125 -0.1125)">
     <use xlink:href="#DejaVuSans-45" transform="translate(0 0.90625)"/>
     <use xlink:href="#DejaVuSans-266d" transform="translate(63.183594 0.90625)"/>
    </g>
   </g>
   <g id="text_21">
    <!-- C -->
    <g transform="translate(186.170841 96.236297) scale(0.1125 -0.1125)">
     <use xlink:href="#DejaVuSans-43"/>
    </g>
   </g>
   <g id="text_22">
    <!-- A -->
    <g transform="translate(171.847087 71.288297) scale(0.1125 -0.1125)">
     <use xlink:href="#DejaVuSans-41"/>
    </g>
   </g>
   <g id="text_23">
    <!-- B$\flat$$\flat$ -->
    <g transform="translate(22.488843 121.184297) scale(0.1125 -0.1125)">
     <use xlink:href="#DejaVuSans-42" transform="translate(0 0.90625)"/>
     <use xlink:href="#DejaVuSans-266d" transform="translate(68.603516 0.90625)"/>
     <use xlink:href="#DejaVuSans-266d" transform="translate(115.771484 0.90625)"/>
    </g>
   </g>
   <g id="text_24">
    <!-- D$\flat$$\flat$ -->
    <g transform="translate(36.386327 146.132297) scale(0.1125 -0.1125)">
     <use xlink:href="#DejaVuSans-44" transform="translate(0 0.90625)"/>
     <use xlink:href="#DejaVuSans-266d" transform="translate(77.001953 0.90625)"/>
     <use xlink:href="#DejaVuSans-266d" transform="translate(124.169922 0.90625)"/>
    </g>
   </g>
   <g id="text_25">
    <!-- F$\flat$$\flat$ -->
    <g transform="translate(51.915062 171.080297) scale(0.1125 -0.1125)">
     <use xlink:href="#DejaVuSans-46" transform="translate(0 0.90625)"/>
     <use xlink:href="#DejaVuSans-266d" transform="translate(57.519531 0.90625)"/>
     <use xlink:href="#DejaVuSans-266d" transform="translate(104.6875 0.90625)"/>
    </g>
   </g>
   <g id="text_26">
    <!-- A -->
    <g transform="translate(71.020945 46.340297) scale(0.1125 -0.1125)">
     <use xlink:href="#DejaVuSans-41"/>
    </g>
   </g>
   <g id="text_27">
    <!-- F -->
    <g transform="translate(57.229808 71.288297) scale(0.1125 -0.1125)">
     <use xlink:href="#DejaVuSans-46"/>
    </g>
   </g>
   <g id="text_28">
    <!-- D$\flat$ -->
    <g transform="translate(39.030077 96.236297) scale(0.1125 -0.1125)">
     <use xlink:href="#DejaVuSans-44" transform="translate(0 0.90625)"/>
     <use xlink:href="#DejaVuSans-266d" transform="translate(77.001953 0.90625)"/>
    </g>
   </g>
   <g id="text_29">
    <!-- F$\flat$$\flat$ -->
    <g transform="translate(152.741204 196.028297) scale(0.1125 -0.1125)">
     <use xlink:href="#DejaVuSans-46" transform="translate(0 0.90625)"/>
     <use xlink:href="#DejaVuSans-266d" transform="translate(57.519531 0.90625)"/>
     <use xlink:href="#DejaVuSans-266d" transform="translate(104.6875 0.90625)"/>
    </g>
   </g>
   <g id="text_30">
    <!-- A$\flat$$\flat$ -->
    <g transform="translate(166.526188 171.080297) scale(0.1125 -0.1125)">
     <use xlink:href="#DejaVuSans-41" transform="translate(0 0.90625)"/>
     <use xlink:href="#DejaVuSans-266d" transform="translate(68.408203 0.90625)"/>
     <use xlink:href="#DejaVuSans-266d" transform="translate(115.576172 0.90625)"/>
    </g>
   </g>
   <g id="text_31">
    <!-- C$\flat$ -->
    <g transform="translate(183.517423 146.132297) scale(0.1125 -0.1125)">
     <use xlink:href="#DejaVuSans-43" transform="translate(0 0.78125)"/>
     <use xlink:href="#DejaVuSans-266d" transform="translate(69.824219 0.78125)"/>
    </g>
   </g>
   <g id="text_32">
    <!-- A$\flat$$\flat$$\flat$ -->
    <g transform="translate(63.056296 196.028297) scale(0.1125 -0.1125)">
     <use xlink:href="#DejaVuSans-41" transform="translate(0 0.90625)"/>
     <use xlink:href="#DejaVuSans-266d" transform="translate(68.408203 0.90625)"/>
     <use xlink:href="#DejaVuSans-266d" transform="translate(115.576172 0.90625)"/>
     <use xlink:href="#DejaVuSans-266d" transform="translate(162.744141 0.90625)"/>
    </g>
   </g>
   <g id="text_33">
    <!-- E$\flat$$\flat$$\flat$ -->
    <g transform="translate(92.145015 196.028297) scale(0.1125 -0.1125)">
     <use xlink:href="#DejaVuSans-45" transform="translate(0 0.90625)"/>
     <use xlink:href="#DejaVuSans-266d" transform="translate(63.183594 0.90625)"/>
     <use xlink:href="#DejaVuSans-266d" transform="translate(110.351562 0.90625)"/>
     <use xlink:href="#DejaVuSans-266d" transform="translate(157.519531 0.90625)"/>
    </g>
   </g>
   <g id="text_34">
    <!-- B$\flat$$\flat$$\flat$ -->
    <g transform="translate(120.614985 196.028297) scale(0.1125 -0.1125)">
     <use xlink:href="#DejaVuSans-42" transform="translate(0 0.90625)"/>
     <use xlink:href="#DejaVuSans-266d" transform="translate(68.603516 0.90625)"/>
     <use xlink:href="#DejaVuSans-266d" transform="translate(115.771484 0.90625)"/>
     <use xlink:href="#DejaVuSans-266d" transform="translate(162.939453 0.90625)"/>
    </g>
   </g>
   <g id="text_35">
    <!-- F$\sharp$ -->
    <g transform="translate(155.328704 46.340297) scale(0.1125 -0.1125)">
     <defs>
      <path id="DejaVuSans-266f" d="M 2022 4678 
L 2166 4678 
L 2181 4663 
L 2181 3713 
L 2553 3900 
L 2563 3894 
L 2563 3453 
Q 2553 3431 2181 3244 
L 2181 2078 
L 2563 2250 
L 2563 1828 
Q 2559 1816 2181 1606 
L 2181 678 
L 2166 666 
L 2022 666 
L 2006 678 
L 2006 1531 
L 1106 1094 
L 1106 13 
L 1091 0 
L 959 0 
L 944 13 
L 944 1016 
L 541 828 
L 541 1272 
Q 541 1291 944 1478 
L 944 2663 
L 938 2663 
L 541 2488 
L 541 2922 
L 944 3125 
L 944 4022 
L 959 4034 
L 1091 4034 
L 1106 4022 
L 1106 3203 
L 2006 3622 
L 2006 4663 
L 2022 4678 
z
M 1106 2731 
L 1106 1553 
L 2006 1988 
L 2006 3150 
L 1106 2731 
z
" transform="scale(0.015625)"/>
     </defs>
     <use xlink:href="#DejaVuSans-46" transform="translate(0 0.90625)"/>
     <use xlink:href="#DejaVuSans-266f" transform="translate(57.519531 0.90625)"/>
    </g>
   </g>
   <g id="text_36">
    <!-- B -->
    <g transform="translate(128.624457 46.340297) scale(0.1125 -0.1125)">
     <use xlink:href="#DejaVuSans-42"/>
    </g>
   </g>
   <g id="text_37">
    <!-- E -->
    <g transform="translate(100.121969 46.340297) scale(0.1125 -0.1125)">
     <use xlink:href="#DejaVuSans-45"/>
    </g>
   </g>
  </g>
 </g>
 <defs>
  <clipPath id="p24284760eb">
   <rect x="7.2" y="7.2" width="221.76" height="221.76"/>
  </clipPath>
 </defs>
</svg>
