<?xml version="1.0" encoding="utf-8" standalone="no"?>
<!DOCTYPE svg PUBLIC "-//W3C//DTD SVG 1.1//EN"
  "http://www.w3.org/Graphics/SVG/1.1/DTD/svg11.dtd">
<svg xmlns:xlink="http://www.w3.org/1999/xlink" width="460.8pt" height="345.6pt" viewBox="0 0 460.8 345.6" xmlns="http://www.w3.org/2000/svg" version="1.1">
 <metadata>
  <rdf:RDF xmlns:dc="http://purl.org/dc/elements/1.1/" xmlns:cc="http://creativecommons.org/ns#" xmlns:rdf="http://www.w3.org/1999/02/22-rdf-syntax-ns#">
   <cc:Work>
    <dc:type rdf:resource="http://purl.org/dc/dcmitype/StillImage"/>
    <dc:date>2026-01-01T21:21:06.825442</dc:date>
    <dc:format>image/svg+xml</dc:format>
    <dc:creator>
     <cc:Agent>
      <dc:title>Matplotlib v3.7.2, https://matplotlib.org/</dc:title>
     </cc:Agent>
    </dc:creator>
   </cc:Work>
  </rdf:RDF>
 </metadata>
 <defs>
  <style type="text/css">*{stroke-linejoin: round; stroke-linecap: butt}</style>
 </defs>
 <g id="figure_1">
  <g id="patch_1">
   <path d="M 0 345.6 
L 460.8 345.6 
L 460.8 0 
L 0 0 
z
" style="fill: #ffffff"/>
  </g>
  <g id="axes_1">
   <g id="patch_2">
    <path d="M 57.6 307.584 
L 414.72 307.584 
L 414.72 41.472 
L 57.6 41.472 
z
" style="fill: #ffffff"/>
   </g>
   <g id="patch_3">
    <path d="M 69.504 258.183797 
L 164.736 258.183797 
L 164.736 181.61339 
L 69.504 181.61339 
L 69.504 258.183797 
z
" clip-path="url(#p4f61d20742)" style="fill: #3274a1; stroke: #3d3d3d; stroke-width: 1.5; stroke-linejoin: miter"/>
   </g>
   <g id="patch_4">
    <path d="M 188.544 253.532596 
L 283.776 253.532596 
L 283.776 214.889741 
L 188.544 214.889741 
L 188.544 253.532596 
z
" clip-path="url(#p4f61d20742)" style="fill: #e1812c; stroke: #3d3d3d; stroke-width: 1.5; stroke-linejoin: miter"/>
   </g>
   <g id="patch_5">
    <path d="M 307.584 286.458373 
L 402.816 286.458373 
L 402.816 226.581119 
L 307.584 226.581119 
L 307.584 286.458373 
z
" clip-path="url(#p4f61d20742)" style="fill: #3a923a; stroke: #3d3d3d; stroke-width: 1.5; stroke-linejoin: miter"/>
   </g>
   <g id="matplotlib.axis_1">
    <g id="xtick_1">
     <g id="line2d_1">
      <defs>
       <path id="mc704fad86f" d="M 0 0 
L 0 3.5 
" style="stroke: #000000; stroke-width: 0.8"/>
      </defs>
      <g>
       <use xlink:href="#mc704fad86f" x="117.12" y="307.584" style="stroke: #000000; stroke-width: 0.8"/>
      </g>
     </g>
     <g id="text_1">
      <!-- 1861-1884 -->
      <g transform="translate(90.71375 323.019781) scale(0.13 -0.13)">
       <defs>
        <path id="Garamond-31" d="M 2269 6 
L 838 6 
Q 834 34 834 53 
Q 834 106 856 126 
Q 878 147 994 169 
Q 1175 206 1288 259 
Q 1319 328 1319 388 
L 1319 581 
Q 1319 616 1328 897 
Q 1331 1003 1334 1816 
L 1341 2550 
L 1334 2978 
Q 1334 3072 1341 3569 
Q 631 3063 563 3063 
Q 538 3063 509 3089 
Q 481 3116 481 3141 
Q 481 3172 503 3191 
Q 547 3231 713 3325 
Q 738 3338 928 3494 
Q 1231 3747 1372 3890 
Q 1513 4034 1544 4053 
Q 1606 4056 1641 4056 
Q 1722 4056 1742 4029 
Q 1763 4003 1763 3838 
L 1741 1053 
L 1741 778 
Q 1741 678 1737 576 
Q 1734 475 1734 428 
Q 1734 316 1763 281 
Q 1781 259 1878 225 
L 2091 181 
Q 2228 147 2241 134 
Q 2272 106 2272 47 
L 2269 6 
z
" transform="scale(0.015625)"/>
        <path id="Garamond-38" d="M 1206 1997 
Q 903 2159 794 2256 
Q 638 2391 533 2603 
Q 428 2816 428 3038 
Q 428 3425 736 3739 
Q 1044 4053 1491 4053 
Q 1994 4053 2287 3787 
Q 2581 3522 2581 3141 
Q 2581 2928 2493 2753 
Q 2406 2578 2234 2438 
Q 2119 2341 1838 2197 
Q 2266 1969 2347 1903 
Q 2516 1772 2631 1556 
Q 2747 1341 2747 1078 
Q 2747 588 2408 250 
Q 2069 -88 1544 -88 
Q 1003 -88 683 207 
Q 363 503 363 938 
Q 363 1184 447 1386 
Q 531 1588 709 1731 
Q 847 1841 1206 1997 
z
M 1697 2269 
Q 1959 2413 2063 2566 
Q 2231 2819 2231 3141 
Q 2231 3391 2131 3570 
Q 2031 3750 1864 3828 
Q 1697 3906 1503 3906 
Q 1194 3906 994 3693 
Q 794 3481 794 3172 
Q 794 2991 847 2870 
Q 900 2750 1016 2647 
Q 1091 2578 1366 2400 
Q 1406 2375 1563 2322 
Q 1609 2306 1697 2269 
z
M 1359 1928 
Q 1134 1809 1044 1719 
Q 906 1588 828 1406 
Q 750 1225 750 906 
Q 750 572 897 381 
Q 1141 66 1534 66 
Q 1894 66 2123 294 
Q 2353 522 2353 881 
Q 2353 1272 2120 1500 
Q 1888 1728 1359 1928 
z
" transform="scale(0.015625)"/>
        <path id="Garamond-36" d="M 2459 4094 
Q 2488 4047 2500 3991 
Q 2481 3956 2441 3944 
Q 2309 3909 2053 3763 
Q 1994 3731 1691 3472 
Q 1556 3378 1366 3122 
Q 1106 2778 993 2508 
Q 881 2238 794 1800 
Q 769 1675 759 1359 
L 750 1244 
Q 750 844 986 445 
Q 1222 47 1575 47 
Q 1759 47 1920 159 
Q 2081 272 2175 540 
Q 2269 809 2269 1191 
Q 2269 1709 2070 1957 
Q 1872 2206 1594 2206 
Q 1509 2206 1444 2181 
L 1419 2175 
Q 1378 2175 1334 2266 
Q 1416 2319 1531 2353 
Q 1647 2388 1681 2388 
Q 1703 2388 1966 2341 
L 2056 2297 
Q 2206 2250 2284 2188 
Q 2428 2072 2541 1897 
Q 2597 1806 2691 1528 
Q 2697 1509 2734 1253 
L 2719 941 
Q 2653 659 2594 547 
Q 2506 375 2300 172 
Q 2194 69 2025 3 
Q 1788 -88 1522 -88 
Q 1016 -88 664 317 
Q 313 722 313 1491 
Q 313 1919 444 2301 
Q 575 2684 816 3003 
Q 978 3219 1258 3466 
Q 1538 3713 1788 3850 
Q 2128 4031 2459 4094 
z
" transform="scale(0.015625)"/>
        <path id="Garamond-2d" d="M 256 1381 
L 300 1381 
L 544 1378 
L 963 1394 
L 1269 1384 
L 1428 1391 
Q 1650 1391 1756 1363 
L 1763 1116 
Q 1569 1100 1450 1100 
Q 1341 1100 1228 1109 
Q 1078 1119 1047 1119 
L 916 1116 
Q 859 1113 781 1113 
Q 391 1113 244 1147 
L 238 1238 
Q 238 1291 256 1381 
z
" transform="scale(0.015625)"/>
        <path id="Garamond-34" d="M 2097 4075 
L 2241 4075 
Q 2238 3978 2238 3959 
L 2247 3500 
L 2228 3088 
L 2241 2628 
L 2241 2266 
L 2247 1772 
Q 2247 1656 2241 1422 
L 2306 1419 
L 2528 1419 
L 2741 1416 
L 2916 1422 
Q 2922 1325 2922 1278 
Q 2922 1231 2916 1134 
Q 2722 1125 2706 1125 
L 2550 1128 
L 2425 1128 
Q 2375 1128 2241 1134 
Q 2234 691 2241 -44 
Q 2222 -63 2200 -69 
L 2006 -75 
Q 1944 -75 1816 -69 
Q 1825 300 1825 459 
Q 1825 600 1819 716 
Q 1809 928 1809 959 
Q 1809 1016 1816 1134 
Q 1684 1119 1613 1119 
Q 1575 1119 1528 1122 
Q 1213 1138 1172 1138 
Q 1131 1138 972 1116 
L 650 1134 
L 475 1125 
L 356 1144 
L 206 1113 
L 178 1134 
Q 172 1203 172 1238 
Q 172 1272 178 1341 
Q 266 1456 500 1809 
L 1109 2694 
Q 1334 3028 1487 3225 
Q 1641 3422 1791 3648 
Q 1941 3875 2097 4075 
z
M 1816 1422 
L 1819 1934 
L 1816 2341 
L 1816 3388 
Q 1559 3050 1103 2366 
Q 581 1584 484 1422 
Q 622 1428 691 1428 
L 1547 1416 
Q 1641 1416 1816 1422 
z
" transform="scale(0.015625)"/>
       </defs>
       <use xlink:href="#Garamond-31"/>
       <use xlink:href="#Garamond-38" x="46.875"/>
       <use xlink:href="#Garamond-36" x="93.75"/>
       <use xlink:href="#Garamond-31" x="140.625"/>
       <use xlink:href="#Garamond-2d" x="187.5"/>
       <use xlink:href="#Garamond-31" x="218.75"/>
       <use xlink:href="#Garamond-38" x="265.625"/>
       <use xlink:href="#Garamond-38" x="312.5"/>
       <use xlink:href="#Garamond-34" x="359.375"/>
      </g>
     </g>
    </g>
    <g id="xtick_2">
     <g id="line2d_2">
      <g>
       <use xlink:href="#mc704fad86f" x="236.16" y="307.584" style="stroke: #000000; stroke-width: 0.8"/>
      </g>
     </g>
     <g id="text_2">
      <!-- 1885-1906 -->
      <g transform="translate(209.75375 323.019781) scale(0.13 -0.13)">
       <defs>
        <path id="Garamond-35" d="M 2369 3606 
Q 2019 3578 1803 3578 
Q 1644 3578 1466 3588 
Q 1369 3594 1350 3594 
Q 969 3594 941 3578 
Q 928 3572 925 3550 
Q 916 3500 844 2434 
Q 984 2506 1115 2536 
Q 1247 2566 1463 2566 
Q 1616 2566 1675 2547 
Q 1972 2450 2103 2372 
Q 2284 2259 2398 2115 
Q 2513 1972 2609 1694 
Q 2678 1494 2678 1275 
Q 2678 1038 2611 833 
Q 2544 628 2444 490 
Q 2344 353 2147 204 
Q 1950 56 1683 -22 
Q 1416 -100 1325 -103 
L 872 -63 
Q 684 -31 543 39 
Q 403 109 356 175 
Q 328 216 328 281 
Q 328 331 398 390 
Q 469 450 572 450 
Q 619 450 675 422 
L 922 263 
Q 1006 188 1131 122 
Q 1150 113 1225 100 
Q 1406 75 1422 75 
Q 1491 75 1656 131 
Q 1822 188 1962 323 
Q 2103 459 2204 667 
Q 2306 875 2306 1128 
Q 2306 1581 2022 1875 
Q 1738 2169 1338 2169 
Q 1159 2169 1007 2109 
Q 856 2050 803 1978 
L 756 1959 
Q 719 1944 703 1944 
L 663 1953 
Q 653 2009 653 2038 
Q 653 2063 663 2125 
Q 684 2278 686 2442 
Q 688 2606 719 2738 
L 709 2888 
Q 731 3003 734 3109 
Q 744 3828 794 3934 
Q 816 3984 869 3984 
Q 891 3984 941 3978 
L 959 3975 
L 1356 3978 
Q 1625 3963 1753 3963 
Q 2047 3963 2225 4003 
Q 2313 4084 2359 4084 
Q 2378 4084 2428 4078 
L 2438 4041 
L 2413 3909 
L 2397 3700 
Q 2394 3678 2369 3606 
z
" transform="scale(0.015625)"/>
        <path id="Garamond-39" d="M 2234 3784 
Q 2466 3534 2566 3291 
Q 2700 2947 2700 2494 
Q 2700 1981 2550 1581 
Q 2400 1181 2186 889 
Q 1972 597 1737 408 
Q 1503 219 1159 62 
Q 816 -94 584 -94 
L 559 -94 
Q 522 -66 522 -25 
Q 522 22 537 37 
Q 553 53 619 56 
Q 734 66 1009 200 
Q 1384 388 1581 613 
Q 1916 994 2080 1475 
Q 2244 1956 2244 2553 
Q 2244 3050 2131 3359 
Q 2019 3669 1812 3806 
Q 1606 3944 1416 3944 
Q 1166 3944 991 3706 
Q 750 3375 750 2750 
Q 750 2256 975 1972 
Q 1134 1772 1413 1772 
Q 1513 1772 1556 1791 
L 1581 1800 
Q 1613 1800 1638 1769 
Q 1675 1722 1675 1672 
L 1641 1644 
Q 1572 1613 1483 1597 
Q 1394 1581 1284 1581 
Q 900 1581 590 1931 
Q 281 2281 281 2813 
Q 281 3356 629 3720 
Q 978 4084 1463 4084 
Q 1672 4084 1831 4025 
Q 1991 3966 2234 3784 
z
" transform="scale(0.015625)"/>
        <path id="Garamond-30" d="M 2800 1972 
Q 2800 1650 2753 1400 
Q 2669 969 2519 678 
Q 2369 388 2163 188 
Q 2013 41 1844 -26 
Q 1675 -94 1500 -94 
Q 1191 -94 914 112 
Q 638 319 431 794 
Q 225 1269 225 1913 
Q 225 2416 350 2878 
Q 475 3341 679 3595 
Q 884 3850 1086 3962 
Q 1288 4075 1525 4075 
Q 1859 4075 2173 3812 
Q 2488 3550 2675 2997 
Q 2800 2625 2800 1972 
z
M 2331 2075 
Q 2328 2844 2275 3119 
Q 2188 3572 1989 3753 
Q 1791 3934 1525 3934 
Q 1303 3934 1104 3790 
Q 906 3647 831 3341 
Q 703 2844 703 1834 
Q 703 834 901 436 
Q 1100 38 1497 38 
Q 1769 38 1967 206 
Q 2166 375 2252 833 
Q 2338 1291 2334 1859 
L 2331 2075 
z
" transform="scale(0.015625)"/>
       </defs>
       <use xlink:href="#Garamond-31"/>
       <use xlink:href="#Garamond-38" x="46.875"/>
       <use xlink:href="#Garamond-38" x="93.75"/>
       <use xlink:href="#Garamond-35" x="140.625"/>
       <use xlink:href="#Garamond-2d" x="187.5"/>
       <use xlink:href="#Garamond-31" x="218.75"/>
       <use xlink:href="#Garamond-39" x="265.625"/>
       <use xlink:href="#Garamond-30" x="312.5"/>
       <use xlink:href="#Garamond-36" x="359.375"/>
      </g>
     </g>
    </g>
    <g id="xtick_3">
     <g id="line2d_3">
      <g>
       <use xlink:href="#mc704fad86f" x="355.2" y="307.584" style="stroke: #000000; stroke-width: 0.8"/>
      </g>
     </g>
     <g id="text_3">
      <!-- 1907-1924 -->
      <g transform="translate(328.79375 323.019781) scale(0.13 -0.13)">
       <defs>
        <path id="Garamond-37" d="M 341 3950 
Q 725 3966 1378 3966 
Q 1675 3966 2056 3956 
Q 2288 3947 2359 3947 
L 2663 3950 
L 2734 3950 
Q 2759 3925 2759 3903 
Q 2759 3866 2688 3722 
Q 2653 3659 2384 3038 
Q 2253 2731 2063 2234 
L 1669 1125 
Q 1528 744 1488 594 
L 1416 303 
Q 1372 175 1372 116 
Q 1372 69 1425 -31 
Q 1388 -81 1256 -81 
Q 1197 -81 1144 -31 
Q 1163 153 1263 456 
Q 1300 566 1390 887 
Q 1481 1209 1569 1456 
L 1925 2425 
Q 2078 2838 2222 3184 
Q 2272 3300 2297 3347 
Q 2363 3463 2363 3538 
L 2322 3534 
L 2288 3534 
L 1875 3547 
Q 1856 3547 1743 3540 
Q 1631 3534 1575 3534 
L 1091 3538 
L 944 3538 
L 738 3544 
Q 556 3547 511 3501 
Q 466 3456 459 3269 
Q 456 3222 434 3178 
Q 400 3169 384 3169 
Q 350 3169 294 3194 
Q 297 3272 297 3309 
L 303 3403 
L 294 3575 
Q 294 3800 306 3878 
Q 313 3909 341 3950 
z
" transform="scale(0.015625)"/>
        <path id="Garamond-32" d="M 2728 6 
Q 2259 25 1472 25 
L 794 6 
L 491 16 
L 250 6 
Q 213 9 141 22 
Q 197 153 284 263 
Q 544 581 1044 1084 
Q 1744 1788 1966 2189 
Q 2188 2591 2188 2944 
Q 2188 3275 1963 3500 
Q 1738 3725 1409 3725 
Q 1213 3725 1028 3633 
Q 844 3541 731 3400 
Q 659 3309 541 3038 
Q 475 2888 463 2875 
Q 444 2853 419 2853 
Q 394 2853 370 2879 
Q 347 2906 347 2947 
Q 347 3088 489 3397 
Q 631 3706 907 3881 
Q 1184 4056 1550 4056 
Q 2028 4056 2348 3745 
Q 2669 3434 2669 3003 
Q 2669 2663 2450 2311 
Q 2231 1959 1444 1234 
Q 1184 997 1075 884 
Q 966 772 634 397 
Q 1113 378 1503 378 
Q 1588 378 1688 384 
Q 1872 391 1903 391 
L 2338 381 
Q 2409 381 2484 450 
Q 2559 519 2688 838 
L 2763 841 
Q 2778 841 2809 838 
Q 2825 806 2825 791 
L 2819 766 
Q 2794 675 2775 434 
Q 2763 294 2728 6 
z
" transform="scale(0.015625)"/>
       </defs>
       <use xlink:href="#Garamond-31"/>
       <use xlink:href="#Garamond-39" x="46.875"/>
       <use xlink:href="#Garamond-30" x="93.75"/>
       <use xlink:href="#Garamond-37" x="140.625"/>
       <use xlink:href="#Garamond-2d" x="187.5"/>
       <use xlink:href="#Garamond-31" x="218.75"/>
       <use xlink:href="#Garamond-39" x="265.625"/>
       <use xlink:href="#Garamond-32" x="312.5"/>
       <use xlink:href="#Garamond-34" x="359.375"/>
      </g>
     </g>
    </g>
    <g id="text_4">
     <!-- Période -->
     <g transform="translate(216.865156 338.788844) scale(0.13 -0.13)">
      <defs>
       <path id="Garamond-50" d="M 138 3991 
Q 194 4000 209 4000 
Q 316 4000 559 3988 
Q 688 3984 734 3984 
Q 803 3984 1025 3997 
L 1556 4028 
Q 1766 4047 2044 4047 
Q 2534 4047 2825 3908 
Q 3116 3769 3273 3472 
Q 3431 3175 3431 2881 
Q 3431 2391 3087 2034 
Q 2744 1678 2163 1678 
Q 2000 1678 1890 1711 
Q 1781 1744 1641 1838 
Q 1581 1878 1569 1922 
Q 1581 1944 1603 1953 
Q 1647 1953 1694 1934 
Q 1800 1897 1963 1897 
Q 2209 1897 2429 2019 
Q 2650 2141 2762 2366 
Q 2875 2591 2875 2841 
Q 2875 3084 2756 3314 
Q 2638 3544 2444 3681 
Q 2334 3759 2107 3812 
Q 1881 3866 1756 3866 
Q 1369 3866 1297 3809 
L 1294 3766 
L 1306 3413 
L 1303 3350 
Q 1297 3266 1297 3091 
Q 1297 2453 1316 2297 
L 1316 2122 
L 1356 694 
Q 1356 663 1348 578 
Q 1341 494 1341 431 
Q 1341 281 1366 203 
Q 1441 181 1803 100 
Q 1972 59 1988 53 
Q 2013 44 2031 13 
Q 2019 -34 1998 -48 
Q 1978 -63 1919 -63 
Q 1881 -63 1744 -47 
Q 1475 -19 1322 -19 
L 772 -41 
L 444 -31 
Q 413 -31 263 -38 
L 259 44 
L 666 122 
Q 766 150 788 178 
Q 819 222 819 350 
Q 819 378 822 472 
Q 825 538 825 653 
Q 825 1022 794 2225 
Q 781 2788 781 3369 
L 781 3422 
Q 781 3647 713 3706 
Q 597 3809 134 3875 
Q 119 3909 119 3931 
Q 119 3956 138 3991 
z
" transform="scale(0.015625)"/>
       <path id="Garamond-e9" d="M 2475 1650 
L 1222 1641 
L 984 1641 
Q 841 1641 691 1628 
Q 663 1534 663 1500 
L 666 1469 
L 666 1438 
L 663 1284 
Q 663 1094 783 817 
Q 903 541 1126 395 
Q 1350 250 1684 241 
Q 1863 250 1969 284 
Q 2075 319 2269 444 
L 2494 628 
L 2513 503 
Q 2513 481 2509 456 
Q 2369 278 2153 143 
Q 1938 9 1716 -53 
Q 1609 -81 1366 -81 
Q 1144 -81 928 9 
Q 609 147 426 451 
Q 244 756 244 1191 
Q 244 1328 295 1543 
Q 347 1759 481 2003 
Q 572 2169 703 2275 
Q 891 2425 1031 2484 
Q 1234 2569 1503 2569 
Q 1794 2569 1978 2463 
Q 2228 2322 2351 2100 
Q 2475 1878 2475 1694 
L 2475 1650 
z
M 731 1763 
L 878 1763 
Q 1038 1763 1828 1813 
Q 1953 1819 1981 1838 
Q 2038 1897 2038 1944 
Q 2038 2041 1975 2164 
Q 1913 2288 1783 2355 
Q 1653 2422 1481 2422 
Q 1119 2422 900 2150 
Q 731 1944 731 1763 
z
M 1027 3075 
L 1414 3634 
Q 1583 3881 1748 3991 
Q 1817 4038 1898 4038 
Q 1983 4038 2033 3991 
Q 2083 3944 2083 3881 
Q 2083 3822 2039 3756 
Q 1995 3691 1830 3578 
L 1095 3075 
L 1061 3072 
L 1027 3075 
z
" transform="scale(0.015625)"/>
       <path id="Garamond-72" d="M 128 -9 
L 116 31 
Q 116 53 144 97 
L 328 134 
L 588 181 
Q 619 197 631 225 
Q 650 266 650 466 
Q 650 1528 637 1692 
Q 625 1856 581 1900 
Q 538 1944 356 1969 
Q 250 1984 188 2009 
L 200 2103 
Q 528 2238 641 2334 
Q 797 2475 906 2703 
L 1013 2700 
Q 1031 2544 1031 2006 
L 1028 1953 
Q 1028 1934 1034 1894 
Q 1153 2109 1331 2291 
L 1403 2363 
Q 1447 2413 1488 2441 
Q 1706 2572 1813 2572 
Q 1950 2572 2037 2480 
Q 2125 2388 2125 2253 
Q 2125 2147 2063 2088 
Q 1978 2009 1869 2009 
Q 1819 2009 1672 2062 
Q 1525 2116 1478 2116 
Q 1391 2116 1356 2088 
Q 1269 2019 1144 1806 
Q 1047 1647 1047 1513 
L 1063 997 
L 1069 378 
Q 1078 272 1094 241 
Q 1106 219 1156 188 
Q 1494 159 1556 147 
Q 1600 144 1622 141 
Q 1756 138 1809 103 
Q 1838 88 1838 56 
Q 1838 38 1813 6 
L 1466 9 
L 1334 13 
L 1144 9 
L 825 9 
L 653 0 
L 128 -9 
z
" transform="scale(0.015625)"/>
       <path id="Garamond-69" d="M 444 3841 
Q 444 3944 523 4019 
Q 603 4094 716 4094 
Q 831 4094 918 4009 
Q 1006 3925 1006 3828 
Q 1006 3731 918 3645 
Q 831 3559 716 3559 
Q 600 3559 522 3637 
Q 444 3716 444 3841 
z
M 181 2222 
L 184 2313 
Q 388 2372 403 2381 
Q 516 2431 639 2534 
Q 763 2638 847 2766 
Q 884 2772 906 2772 
L 944 2769 
Q 956 2619 956 2550 
Q 956 2534 950 2409 
L 950 2244 
L 953 1344 
L 944 391 
Q 941 275 981 229 
Q 1022 184 1222 128 
Q 1347 94 1409 69 
Q 1419 47 1419 31 
Q 1419 13 1403 -16 
Q 1281 -13 1091 0 
Q 831 22 747 22 
Q 706 22 247 6 
Q 153 3 66 -9 
Q 50 -9 16 0 
Q 0 22 0 38 
Q 0 81 59 106 
Q 72 113 378 178 
Q 478 197 509 241 
Q 563 306 563 450 
Q 569 691 569 1769 
Q 569 1984 550 2038 
Q 534 2075 467 2123 
Q 400 2172 181 2222 
z
" transform="scale(0.015625)"/>
       <path id="Garamond-6f" d="M 228 1256 
Q 228 1469 317 1711 
Q 406 1953 587 2145 
Q 769 2338 972 2431 
Q 1256 2563 1666 2563 
Q 2250 2563 2642 2163 
Q 3034 1763 3034 1200 
Q 3034 700 2623 308 
Q 2213 -84 1584 -84 
Q 1197 -84 853 119 
Q 597 272 412 572 
Q 228 872 228 1256 
z
M 1609 38 
Q 1847 38 2067 166 
Q 2288 294 2419 576 
Q 2550 859 2550 1231 
Q 2550 1475 2448 1797 
Q 2347 2119 2136 2280 
Q 1925 2441 1641 2441 
Q 1434 2441 1220 2344 
Q 1006 2247 857 1972 
Q 709 1697 709 1191 
Q 709 622 967 330 
Q 1225 38 1609 38 
z
" transform="scale(0.015625)"/>
       <path id="Garamond-64" d="M 2281 2269 
L 2284 2359 
L 2281 2725 
L 2284 3416 
Q 2284 3703 2221 3781 
Q 2159 3859 1856 3941 
Q 1834 3947 1788 3959 
L 1788 3994 
Q 1788 4025 1794 4063 
Q 2219 4106 2525 4209 
L 2684 4213 
Q 2697 4000 2697 3738 
L 2684 2534 
L 2706 1178 
L 2697 456 
Q 2697 234 2728 206 
Q 2791 144 3003 141 
Q 3047 141 3122 134 
L 3122 78 
Q 3122 56 3119 31 
Q 3022 9 2919 -9 
L 2466 -97 
Q 2366 -116 2306 -116 
L 2306 184 
Q 2253 169 2141 122 
Q 1653 -84 1244 -84 
Q 997 -84 740 77 
Q 484 238 346 525 
Q 209 813 209 1113 
Q 209 1381 300 1626 
Q 391 1872 538 2034 
Q 631 2141 803 2245 
Q 975 2350 1088 2378 
Q 1366 2450 1459 2450 
Q 1881 2450 2153 2325 
Q 2238 2284 2281 2269 
z
M 2284 338 
Q 2297 547 2297 1200 
Q 2297 1753 2245 1898 
Q 2194 2044 1987 2173 
Q 1781 2303 1525 2303 
Q 1166 2303 916 2025 
Q 666 1747 666 1203 
Q 666 725 936 440 
Q 1206 156 1609 156 
Q 1841 156 2031 218 
Q 2222 281 2284 338 
z
" transform="scale(0.015625)"/>
       <path id="Garamond-65" d="M 2475 1650 
L 1222 1641 
L 984 1641 
Q 841 1641 691 1628 
Q 663 1534 663 1500 
L 666 1469 
L 666 1438 
L 663 1284 
Q 663 1094 783 817 
Q 903 541 1126 395 
Q 1350 250 1684 241 
Q 1863 250 1969 284 
Q 2075 319 2269 444 
L 2494 628 
L 2513 503 
Q 2513 481 2509 456 
Q 2369 278 2153 143 
Q 1938 9 1716 -53 
Q 1609 -81 1366 -81 
Q 1144 -81 928 9 
Q 609 147 426 451 
Q 244 756 244 1191 
Q 244 1328 295 1543 
Q 347 1759 481 2003 
Q 572 2169 703 2275 
Q 891 2425 1031 2484 
Q 1234 2569 1503 2569 
Q 1794 2569 1978 2463 
Q 2228 2322 2351 2100 
Q 2475 1878 2475 1694 
L 2475 1650 
z
M 731 1763 
L 878 1763 
Q 1038 1763 1828 1813 
Q 1953 1819 1981 1838 
Q 2038 1897 2038 1944 
Q 2038 2041 1975 2164 
Q 1913 2288 1783 2355 
Q 1653 2422 1481 2422 
Q 1119 2422 900 2150 
Q 731 1944 731 1763 
z
" transform="scale(0.015625)"/>
      </defs>
      <use xlink:href="#Garamond-50"/>
      <use xlink:href="#Garamond-e9" x="56.25"/>
      <use xlink:href="#Garamond-72" x="97.900391"/>
      <use xlink:href="#Garamond-69" x="131.25"/>
      <use xlink:href="#Garamond-6f" x="154.150391"/>
      <use xlink:href="#Garamond-64" x="205.175781"/>
      <use xlink:href="#Garamond-65" x="255.175781"/>
     </g>
    </g>
   </g>
   <g id="matplotlib.axis_2">
    <g id="ytick_1">
     <g id="line2d_4">
      <defs>
       <path id="m74aa0e5d15" d="M 0 0 
L -3.5 0 
" style="stroke: #000000; stroke-width: 0.8"/>
      </defs>
      <g>
       <use xlink:href="#m74aa0e5d15" x="57.6" y="307.366324" style="stroke: #000000; stroke-width: 0.8"/>
      </g>
     </g>
     <g id="text_5">
      <!-- 0.000 -->
      <g transform="translate(23.38125 311.584214) scale(0.13 -0.13)">
       <defs>
        <path id="Garamond-2e" d="M 375 253 
Q 375 391 476 494 
Q 578 597 713 597 
Q 844 597 934 500 
Q 1025 403 1025 256 
Q 1025 109 929 9 
Q 834 -91 700 -91 
Q 569 -91 472 11 
Q 375 113 375 253 
z
" transform="scale(0.015625)"/>
       </defs>
       <use xlink:href="#Garamond-30"/>
       <use xlink:href="#Garamond-2e" x="46.875"/>
       <use xlink:href="#Garamond-30" x="68.75"/>
       <use xlink:href="#Garamond-30" x="115.625"/>
       <use xlink:href="#Garamond-30" x="162.5"/>
      </g>
     </g>
    </g>
    <g id="ytick_2">
     <g id="line2d_5">
      <g>
       <use xlink:href="#m74aa0e5d15" x="57.6" y="273.044784" style="stroke: #000000; stroke-width: 0.8"/>
      </g>
     </g>
     <g id="text_6">
      <!-- 0.025 -->
      <g transform="translate(23.38125 277.262674) scale(0.13 -0.13)">
       <use xlink:href="#Garamond-30"/>
       <use xlink:href="#Garamond-2e" x="46.875"/>
       <use xlink:href="#Garamond-30" x="68.75"/>
       <use xlink:href="#Garamond-32" x="115.625"/>
       <use xlink:href="#Garamond-35" x="162.5"/>
      </g>
     </g>
    </g>
    <g id="ytick_3">
     <g id="line2d_6">
      <g>
       <use xlink:href="#m74aa0e5d15" x="57.6" y="238.723243" style="stroke: #000000; stroke-width: 0.8"/>
      </g>
     </g>
     <g id="text_7">
      <!-- 0.050 -->
      <g transform="translate(23.38125 242.941134) scale(0.13 -0.13)">
       <use xlink:href="#Garamond-30"/>
       <use xlink:href="#Garamond-2e" x="46.875"/>
       <use xlink:href="#Garamond-30" x="68.75"/>
       <use xlink:href="#Garamond-35" x="115.625"/>
       <use xlink:href="#Garamond-30" x="162.5"/>
      </g>
     </g>
    </g>
    <g id="ytick_4">
     <g id="line2d_7">
      <g>
       <use xlink:href="#m74aa0e5d15" x="57.6" y="204.401703" style="stroke: #000000; stroke-width: 0.8"/>
      </g>
     </g>
     <g id="text_8">
      <!-- 0.075 -->
      <g transform="translate(23.38125 208.619594) scale(0.13 -0.13)">
       <use xlink:href="#Garamond-30"/>
       <use xlink:href="#Garamond-2e" x="46.875"/>
       <use xlink:href="#Garamond-30" x="68.75"/>
       <use xlink:href="#Garamond-37" x="115.625"/>
       <use xlink:href="#Garamond-35" x="162.5"/>
      </g>
     </g>
    </g>
    <g id="ytick_5">
     <g id="line2d_8">
      <g>
       <use xlink:href="#m74aa0e5d15" x="57.6" y="170.080163" style="stroke: #000000; stroke-width: 0.8"/>
      </g>
     </g>
     <g id="text_9">
      <!-- 0.100 -->
      <g transform="translate(23.38125 174.298054) scale(0.13 -0.13)">
       <use xlink:href="#Garamond-30"/>
       <use xlink:href="#Garamond-2e" x="46.875"/>
       <use xlink:href="#Garamond-31" x="68.75"/>
       <use xlink:href="#Garamond-30" x="115.625"/>
       <use xlink:href="#Garamond-30" x="162.5"/>
      </g>
     </g>
    </g>
    <g id="ytick_6">
     <g id="line2d_9">
      <g>
       <use xlink:href="#m74aa0e5d15" x="57.6" y="135.758623" style="stroke: #000000; stroke-width: 0.8"/>
      </g>
     </g>
     <g id="text_10">
      <!-- 0.125 -->
      <g transform="translate(23.38125 139.976514) scale(0.13 -0.13)">
       <use xlink:href="#Garamond-30"/>
       <use xlink:href="#Garamond-2e" x="46.875"/>
       <use xlink:href="#Garamond-31" x="68.75"/>
       <use xlink:href="#Garamond-32" x="115.625"/>
       <use xlink:href="#Garamond-35" x="162.5"/>
      </g>
     </g>
    </g>
    <g id="ytick_7">
     <g id="line2d_10">
      <g>
       <use xlink:href="#m74aa0e5d15" x="57.6" y="101.437083" style="stroke: #000000; stroke-width: 0.8"/>
      </g>
     </g>
     <g id="text_11">
      <!-- 0.150 -->
      <g transform="translate(23.38125 105.654973) scale(0.13 -0.13)">
       <use xlink:href="#Garamond-30"/>
       <use xlink:href="#Garamond-2e" x="46.875"/>
       <use xlink:href="#Garamond-31" x="68.75"/>
       <use xlink:href="#Garamond-35" x="115.625"/>
       <use xlink:href="#Garamond-30" x="162.5"/>
      </g>
     </g>
    </g>
    <g id="ytick_8">
     <g id="line2d_11">
      <g>
       <use xlink:href="#m74aa0e5d15" x="57.6" y="67.115543" style="stroke: #000000; stroke-width: 0.8"/>
      </g>
     </g>
     <g id="text_12">
      <!-- 0.175 -->
      <g transform="translate(23.38125 71.333433) scale(0.13 -0.13)">
       <use xlink:href="#Garamond-30"/>
       <use xlink:href="#Garamond-2e" x="46.875"/>
       <use xlink:href="#Garamond-31" x="68.75"/>
       <use xlink:href="#Garamond-37" x="115.625"/>
       <use xlink:href="#Garamond-35" x="162.5"/>
      </g>
     </g>
    </g>
    <g id="text_13">
     <!-- loss -->
     <g transform="translate(16.047969 184.074875) rotate(-90) scale(0.13 -0.13)">
      <defs>
       <path id="Garamond-6c" d="M 163 3872 
L 163 3941 
Q 250 3969 356 4000 
Q 513 4050 819 4153 
L 966 4153 
Q 969 4003 969 3981 
Q 969 1416 953 922 
Q 944 631 944 613 
Q 944 263 972 222 
Q 1009 166 1201 144 
Q 1394 122 1428 100 
Q 1453 88 1453 56 
Q 1453 22 1439 8 
Q 1425 -6 1388 -6 
Q 1366 -6 1059 3 
L 650 16 
L 125 -6 
Q 75 -9 50 13 
Q 31 28 31 56 
Q 31 88 51 102 
Q 72 116 276 150 
Q 481 184 511 207 
Q 541 231 550 313 
Q 563 425 563 947 
L 559 1666 
L 569 2409 
L 566 3153 
L 575 3519 
Q 575 3628 540 3676 
Q 506 3725 394 3772 
Q 225 3841 163 3872 
z
" transform="scale(0.015625)"/>
       <path id="Garamond-73" d="M 453 794 
Q 569 497 628 409 
Q 747 231 912 132 
Q 1078 34 1272 34 
Q 1450 34 1625 188 
Q 1750 303 1750 456 
Q 1750 659 1603 831 
Q 1456 1000 1045 1154 
Q 634 1309 494 1484 
Q 353 1659 353 1884 
Q 353 2097 468 2259 
Q 584 2422 787 2505 
Q 991 2588 1163 2588 
Q 1384 2588 1561 2553 
Q 1738 2519 1866 2447 
Q 1891 2288 1906 1978 
L 1913 1878 
Q 1872 1875 1844 1875 
L 1800 1875 
Q 1706 2134 1514 2286 
Q 1322 2438 1134 2438 
Q 947 2438 831 2323 
Q 716 2209 716 2025 
Q 716 1884 809 1775 
Q 903 1666 1248 1525 
Q 1594 1384 1751 1264 
Q 1909 1144 1984 972 
Q 2059 800 2059 644 
Q 2059 428 1917 240 
Q 1775 53 1561 -23 
Q 1347 -100 1178 -100 
Q 781 -100 447 47 
Q 416 72 413 141 
Q 413 169 406 231 
Q 356 653 356 731 
Q 356 769 372 781 
Q 388 794 453 794 
z
" transform="scale(0.015625)"/>
      </defs>
      <use xlink:href="#Garamond-6c"/>
      <use xlink:href="#Garamond-6f" x="22.900391"/>
      <use xlink:href="#Garamond-73" x="73.925781"/>
      <use xlink:href="#Garamond-73" x="110.400391"/>
     </g>
    </g>
   </g>
   <g id="line2d_12">
    <path d="M 117.12 258.183797 
L 117.12 293.567716 
" clip-path="url(#p4f61d20742)" style="fill: none; stroke: #3d3d3d; stroke-width: 1.5; stroke-linecap: square"/>
   </g>
   <g id="line2d_13">
    <path d="M 117.12 181.61339 
L 117.12 144.119124 
" clip-path="url(#p4f61d20742)" style="fill: none; stroke: #3d3d3d; stroke-width: 1.5; stroke-linecap: square"/>
   </g>
   <g id="line2d_14">
    <path d="M 93.312 293.567716 
L 140.928 293.567716 
" clip-path="url(#p4f61d20742)" style="fill: none; stroke: #3d3d3d; stroke-width: 1.5; stroke-linecap: square"/>
   </g>
   <g id="line2d_15">
    <path d="M 93.312 144.119124 
L 140.928 144.119124 
" clip-path="url(#p4f61d20742)" style="fill: none; stroke: #3d3d3d; stroke-width: 1.5; stroke-linecap: square"/>
   </g>
   <g id="line2d_16">
    <defs>
     <path id="mf2fd21ba42" d="M 0 3.535534 
L 2.12132 0 
L 0 -3.535534 
L -2.12132 0 
z
" style="stroke: #3d3d3d; stroke-linejoin: miter"/>
    </defs>
    <g clip-path="url(#p4f61d20742)">
     <use xlink:href="#mf2fd21ba42" x="117.12" y="53.568" style="fill: #3d3d3d; stroke: #3d3d3d; stroke-linejoin: miter"/>
    </g>
   </g>
   <g id="line2d_17">
    <path d="M 236.16 253.532596 
L 236.16 295.488 
" clip-path="url(#p4f61d20742)" style="fill: none; stroke: #3d3d3d; stroke-width: 1.5; stroke-linecap: square"/>
   </g>
   <g id="line2d_18">
    <path d="M 236.16 214.889741 
L 236.16 164.738483 
" clip-path="url(#p4f61d20742)" style="fill: none; stroke: #3d3d3d; stroke-width: 1.5; stroke-linecap: square"/>
   </g>
   <g id="line2d_19">
    <path d="M 212.352 295.488 
L 259.968 295.488 
" clip-path="url(#p4f61d20742)" style="fill: none; stroke: #3d3d3d; stroke-width: 1.5; stroke-linecap: square"/>
   </g>
   <g id="line2d_20">
    <path d="M 212.352 164.738483 
L 259.968 164.738483 
" clip-path="url(#p4f61d20742)" style="fill: none; stroke: #3d3d3d; stroke-width: 1.5; stroke-linecap: square"/>
   </g>
   <g id="line2d_21">
    <g clip-path="url(#p4f61d20742)">
     <use xlink:href="#mf2fd21ba42" x="236.16" y="117.079022" style="fill: #3d3d3d; stroke: #3d3d3d; stroke-linejoin: miter"/>
    </g>
   </g>
   <g id="line2d_22">
    <path d="M 355.2 286.458373 
L 355.2 294.572593 
" clip-path="url(#p4f61d20742)" style="fill: none; stroke: #3d3d3d; stroke-width: 1.5; stroke-linecap: square"/>
   </g>
   <g id="line2d_23">
    <path d="M 355.2 226.581119 
L 355.2 169.462579 
" clip-path="url(#p4f61d20742)" style="fill: none; stroke: #3d3d3d; stroke-width: 1.5; stroke-linecap: square"/>
   </g>
   <g id="line2d_24">
    <path d="M 331.392 294.572593 
L 379.008 294.572593 
" clip-path="url(#p4f61d20742)" style="fill: none; stroke: #3d3d3d; stroke-width: 1.5; stroke-linecap: square"/>
   </g>
   <g id="line2d_25">
    <path d="M 331.392 169.462579 
L 379.008 169.462579 
" clip-path="url(#p4f61d20742)" style="fill: none; stroke: #3d3d3d; stroke-width: 1.5; stroke-linecap: square"/>
   </g>
   <g id="line2d_26">
    <g clip-path="url(#p4f61d20742)">
     <use xlink:href="#mf2fd21ba42" x="355.2" y="126.686474" style="fill: #3d3d3d; stroke: #3d3d3d; stroke-linejoin: miter"/>
    </g>
   </g>
   <g id="line2d_27">
    <path d="M 69.504 224.189759 
L 164.736 224.189759 
" clip-path="url(#p4f61d20742)" style="fill: none; stroke: #3d3d3d; stroke-width: 1.5; stroke-linecap: square"/>
   </g>
   <g id="line2d_28">
    <path d="M 188.544 230.706595 
L 283.776 230.706595 
" clip-path="url(#p4f61d20742)" style="fill: none; stroke: #3d3d3d; stroke-width: 1.5; stroke-linecap: square"/>
   </g>
   <g id="line2d_29">
    <path d="M 307.584 255.758509 
L 402.816 255.758509 
" clip-path="url(#p4f61d20742)" style="fill: none; stroke: #3d3d3d; stroke-width: 1.5; stroke-linecap: square"/>
   </g>
   <g id="patch_6">
    <path d="M 57.6 307.584 
L 57.6 41.472 
" style="fill: none; stroke: #000000; stroke-width: 0.8; stroke-linejoin: miter; stroke-linecap: square"/>
   </g>
   <g id="patch_7">
    <path d="M 414.72 307.584 
L 414.72 41.472 
" style="fill: none; stroke: #000000; stroke-width: 0.8; stroke-linejoin: miter; stroke-linecap: square"/>
   </g>
   <g id="patch_8">
    <path d="M 57.6 307.584 
L 414.72 307.584 
" style="fill: none; stroke: #000000; stroke-width: 0.8; stroke-linejoin: miter; stroke-linecap: square"/>
   </g>
   <g id="patch_9">
    <path d="M 57.6 41.472 
L 414.72 41.472 
" style="fill: none; stroke: #000000; stroke-width: 0.8; stroke-linejoin: miter; stroke-linecap: square"/>
   </g>
  </g>
 </g>
 <defs>
  <clipPath id="p4f61d20742">
   <rect x="57.6" y="41.472" width="357.12" height="266.112"/>
  </clipPath>
 </defs>
</svg>
