<?xml version="1.0" encoding="utf-8" standalone="no"?>
<!DOCTYPE svg PUBLIC "-//W3C//DTD SVG 1.1//EN"
  "http://www.w3.org/Graphics/SVG/1.1/DTD/svg11.dtd">
<svg xmlns:xlink="http://www.w3.org/1999/xlink" width="720pt" height="288pt" viewBox="0 0 720 288" xmlns="http://www.w3.org/2000/svg" version="1.1">
 <metadata>
  <rdf:RDF xmlns:dc="http://purl.org/dc/elements/1.1/" xmlns:cc="http://creativecommons.org/ns#" xmlns:rdf="http://www.w3.org/1999/02/22-rdf-syntax-ns#">
   <cc:Work>
    <dc:type rdf:resource="http://purl.org/dc/dcmitype/StillImage"/>
    <dc:date>2025-10-23T20:54:17.588211</dc:date>
    <dc:format>image/svg+xml</dc:format>
    <dc:creator>
     <cc:Agent>
      <dc:title>Matplotlib v3.7.2, https://matplotlib.org/</dc:title>
     </cc:Agent>
    </dc:creator>
   </cc:Work>
  </rdf:RDF>
 </metadata>
 <defs>
  <style type="text/css">*{stroke-linejoin: round; stroke-linecap: butt}</style>
 </defs>
 <g id="figure_1">
  <g id="patch_1">
   <path d="M 0 288 
L 720 288 
L 720 0 
L 0 0 
z
" style="fill: #ffffff"/>
  </g>
  <g id="axes_1">
   <g id="patch_2">
    <path d="M 60.32 245.54 
L 709.2 245.54 
L 709.2 10.8 
L 60.32 10.8 
z
" style="fill: #ffffff"/>
   </g>
   <g id="patch_3">
    <path d="M 89.814545 245.54 
L 95.825079 245.54 
L 95.825079 245.54 
L 89.814545 245.54 
z
" clip-path="url(#p9211aac0ff)" style="fill: #808080; opacity: 0.6"/>
   </g>
   <g id="patch_4">
    <path d="M 106.987498 245.54 
L 112.998031 245.54 
L 112.998031 245.54 
L 106.987498 245.54 
z
" clip-path="url(#p9211aac0ff)" style="fill: #808080; opacity: 0.6"/>
   </g>
   <g id="patch_5">
    <path d="M 124.16045 245.54 
L 130.170983 245.54 
L 130.170983 245.54 
L 124.16045 245.54 
z
" clip-path="url(#p9211aac0ff)" style="fill: #808080; opacity: 0.6"/>
   </g>
   <g id="patch_6">
    <path d="M 141.333402 245.54 
L 147.343935 245.54 
L 147.343935 245.54 
L 141.333402 245.54 
z
" clip-path="url(#p9211aac0ff)" style="fill: #808080; opacity: 0.6"/>
   </g>
   <g id="patch_7">
    <path d="M 158.506354 245.54 
L 164.516888 245.54 
L 164.516888 245.54 
L 158.506354 245.54 
z
" clip-path="url(#p9211aac0ff)" style="fill: #808080; opacity: 0.6"/>
   </g>
   <g id="patch_8">
    <path d="M 175.679307 245.54 
L 181.68984 245.54 
L 181.68984 245.54 
L 175.679307 245.54 
z
" clip-path="url(#p9211aac0ff)" style="fill: #808080; opacity: 0.6"/>
   </g>
   <g id="patch_9">
    <path d="M 192.852259 245.54 
L 198.862792 245.54 
L 198.862792 245.54 
L 192.852259 245.54 
z
" clip-path="url(#p9211aac0ff)" style="fill: #808080; opacity: 0.6"/>
   </g>
   <g id="patch_10">
    <path d="M 210.025211 245.54 
L 216.035744 245.54 
L 216.035744 245.54 
L 210.025211 245.54 
z
" clip-path="url(#p9211aac0ff)" style="fill: #808080; opacity: 0.6"/>
   </g>
   <g id="patch_11">
    <path d="M 227.198163 245.54 
L 233.208697 245.54 
L 233.208697 245.54 
L 227.198163 245.54 
z
" clip-path="url(#p9211aac0ff)" style="fill: #808080; opacity: 0.6"/>
   </g>
   <g id="patch_12">
    <path d="M 244.371116 245.54 
L 250.381649 245.54 
L 250.381649 244.097665 
L 244.371116 244.097665 
z
" clip-path="url(#p9211aac0ff)" style="fill: #808080; opacity: 0.6"/>
   </g>
   <g id="patch_13">
    <path d="M 261.544068 245.54 
L 267.554601 245.54 
L 267.554601 245.54 
L 261.544068 245.54 
z
" clip-path="url(#p9211aac0ff)" style="fill: #808080; opacity: 0.6"/>
   </g>
   <g id="patch_14">
    <path d="M 278.71702 245.54 
L 284.727553 245.54 
L 284.727553 245.54 
L 278.71702 245.54 
z
" clip-path="url(#p9211aac0ff)" style="fill: #808080; opacity: 0.6"/>
   </g>
   <g id="patch_15">
    <path d="M 295.889972 245.54 
L 301.900505 245.54 
L 301.900505 171.980922 
L 295.889972 171.980922 
z
" clip-path="url(#p9211aac0ff)" style="fill: #808080; opacity: 0.6"/>
   </g>
   <g id="patch_16">
    <path d="M 313.062924 245.54 
L 319.073458 245.54 
L 319.073458 21.978095 
L 313.062924 21.978095 
z
" clip-path="url(#p9211aac0ff)" style="fill: #808080; opacity: 0.6"/>
   </g>
   <g id="patch_17">
    <path d="M 330.235877 245.54 
L 336.24641 245.54 
L 336.24641 151.788233 
L 330.235877 151.788233 
z
" clip-path="url(#p9211aac0ff)" style="fill: #808080; opacity: 0.6"/>
   </g>
   <g id="patch_18">
    <path d="M 347.408829 245.54 
L 353.419362 245.54 
L 353.419362 121.499201 
L 347.408829 121.499201 
z
" clip-path="url(#p9211aac0ff)" style="fill: #808080; opacity: 0.6"/>
   </g>
   <g id="patch_19">
    <path d="M 364.581781 245.54 
L 370.592314 245.54 
L 370.592314 66.690476 
L 364.581781 66.690476 
z
" clip-path="url(#p9211aac0ff)" style="fill: #808080; opacity: 0.6"/>
   </g>
   <g id="patch_20">
    <path d="M 381.754733 245.54 
L 387.765267 245.54 
L 387.765267 71.017481 
L 381.754733 71.017481 
z
" clip-path="url(#p9211aac0ff)" style="fill: #808080; opacity: 0.6"/>
   </g>
   <g id="patch_21">
    <path d="M 398.927686 245.54 
L 404.938219 245.54 
L 404.938219 86.883164 
L 398.927686 86.883164 
z
" clip-path="url(#p9211aac0ff)" style="fill: #808080; opacity: 0.6"/>
   </g>
   <g id="patch_22">
    <path d="M 416.100638 245.54 
L 422.111171 245.54 
L 422.111171 223.904977 
L 416.100638 223.904977 
z
" clip-path="url(#p9211aac0ff)" style="fill: #808080; opacity: 0.6"/>
   </g>
   <g id="patch_23">
    <path d="M 433.27359 245.54 
L 439.284123 245.54 
L 439.284123 245.54 
L 433.27359 245.54 
z
" clip-path="url(#p9211aac0ff)" style="fill: #808080; opacity: 0.6"/>
   </g>
   <g id="patch_24">
    <path d="M 450.446542 245.54 
L 456.457076 245.54 
L 456.457076 187.846605 
L 450.446542 187.846605 
z
" clip-path="url(#p9211aac0ff)" style="fill: #808080; opacity: 0.6"/>
   </g>
   <g id="patch_25">
    <path d="M 467.619495 245.54 
L 473.630028 245.54 
L 473.630028 231.116651 
L 467.619495 231.116651 
z
" clip-path="url(#p9211aac0ff)" style="fill: #808080; opacity: 0.6"/>
   </g>
   <g id="patch_26">
    <path d="M 484.792447 245.54 
L 490.80298 245.54 
L 490.80298 221.020307 
L 484.792447 221.020307 
z
" clip-path="url(#p9211aac0ff)" style="fill: #808080; opacity: 0.6"/>
   </g>
   <g id="patch_27">
    <path d="M 501.965399 245.54 
L 507.975932 245.54 
L 507.975932 245.54 
L 501.965399 245.54 
z
" clip-path="url(#p9211aac0ff)" style="fill: #808080; opacity: 0.6"/>
   </g>
   <g id="patch_28">
    <path d="M 519.138351 245.54 
L 525.148884 245.54 
L 525.148884 245.54 
L 519.138351 245.54 
z
" clip-path="url(#p9211aac0ff)" style="fill: #808080; opacity: 0.6"/>
   </g>
   <g id="patch_29">
    <path d="M 536.311303 245.54 
L 542.321837 245.54 
L 542.321837 245.54 
L 536.311303 245.54 
z
" clip-path="url(#p9211aac0ff)" style="fill: #808080; opacity: 0.6"/>
   </g>
   <g id="patch_30">
    <path d="M 553.484256 245.54 
L 559.494789 245.54 
L 559.494789 245.54 
L 553.484256 245.54 
z
" clip-path="url(#p9211aac0ff)" style="fill: #808080; opacity: 0.6"/>
   </g>
   <g id="patch_31">
    <path d="M 570.657208 245.54 
L 576.667741 245.54 
L 576.667741 245.54 
L 570.657208 245.54 
z
" clip-path="url(#p9211aac0ff)" style="fill: #808080; opacity: 0.6"/>
   </g>
   <g id="patch_32">
    <path d="M 587.83016 245.54 
L 593.840693 245.54 
L 593.840693 245.54 
L 587.83016 245.54 
z
" clip-path="url(#p9211aac0ff)" style="fill: #808080; opacity: 0.6"/>
   </g>
   <g id="patch_33">
    <path d="M 605.003112 245.54 
L 611.013646 245.54 
L 611.013646 245.54 
L 605.003112 245.54 
z
" clip-path="url(#p9211aac0ff)" style="fill: #808080; opacity: 0.6"/>
   </g>
   <g id="patch_34">
    <path d="M 622.176065 245.54 
L 628.186598 245.54 
L 628.186598 245.54 
L 622.176065 245.54 
z
" clip-path="url(#p9211aac0ff)" style="fill: #808080; opacity: 0.6"/>
   </g>
   <g id="patch_35">
    <path d="M 639.349017 245.54 
L 645.35955 245.54 
L 645.35955 245.54 
L 639.349017 245.54 
z
" clip-path="url(#p9211aac0ff)" style="fill: #808080; opacity: 0.6"/>
   </g>
   <g id="patch_36">
    <path d="M 656.521969 245.54 
L 662.532502 245.54 
L 662.532502 245.54 
L 656.521969 245.54 
z
" clip-path="url(#p9211aac0ff)" style="fill: #808080; opacity: 0.6"/>
   </g>
   <g id="patch_37">
    <path d="M 673.694921 245.54 
L 679.705455 245.54 
L 679.705455 245.54 
L 673.694921 245.54 
z
" clip-path="url(#p9211aac0ff)" style="fill: #808080; opacity: 0.6"/>
   </g>
   <g id="matplotlib.axis_1">
    <g id="xtick_1">
     <g id="line2d_1">
      <defs>
       <path id="mf06d936c1c" d="M 0 0 
L 0 3.5 
" style="stroke: #000000; stroke-width: 0.8"/>
      </defs>
      <g>
       <use xlink:href="#mf06d936c1c" x="92.819812" y="245.54" style="stroke: #000000; stroke-width: 0.8"/>
      </g>
     </g>
     <g id="text_1">
      <!-- Fbb -->
      <g transform="translate(95.579187 270.988437) rotate(-90) scale(0.1 -0.1)">
       <defs>
        <path id="DejaVuSans-46" d="M 628 4666 
L 3309 4666 
L 3309 4134 
L 1259 4134 
L 1259 2759 
L 3109 2759 
L 3109 2228 
L 1259 2228 
L 1259 0 
L 628 0 
L 628 4666 
z
" transform="scale(0.015625)"/>
        <path id="DejaVuSans-62" d="M 3116 1747 
Q 3116 2381 2855 2742 
Q 2594 3103 2138 3103 
Q 1681 3103 1420 2742 
Q 1159 2381 1159 1747 
Q 1159 1113 1420 752 
Q 1681 391 2138 391 
Q 2594 391 2855 752 
Q 3116 1113 3116 1747 
z
M 1159 2969 
Q 1341 3281 1617 3432 
Q 1894 3584 2278 3584 
Q 2916 3584 3314 3078 
Q 3713 2572 3713 1747 
Q 3713 922 3314 415 
Q 2916 -91 2278 -91 
Q 1894 -91 1617 61 
Q 1341 213 1159 525 
L 1159 0 
L 581 0 
L 581 4863 
L 1159 4863 
L 1159 2969 
z
" transform="scale(0.015625)"/>
       </defs>
       <use xlink:href="#DejaVuSans-46"/>
       <use xlink:href="#DejaVuSans-62" x="57.519531"/>
       <use xlink:href="#DejaVuSans-62" x="120.996094"/>
      </g>
     </g>
    </g>
    <g id="xtick_2">
     <g id="line2d_2">
      <g>
       <use xlink:href="#mf06d936c1c" x="109.992764" y="245.54" style="stroke: #000000; stroke-width: 0.8"/>
      </g>
     </g>
     <g id="text_2">
      <!-- Cbb -->
      <g transform="translate(112.752139 272.219687) rotate(-90) scale(0.1 -0.1)">
       <defs>
        <path id="DejaVuSans-43" d="M 4122 4306 
L 4122 3641 
Q 3803 3938 3442 4084 
Q 3081 4231 2675 4231 
Q 1875 4231 1450 3742 
Q 1025 3253 1025 2328 
Q 1025 1406 1450 917 
Q 1875 428 2675 428 
Q 3081 428 3442 575 
Q 3803 722 4122 1019 
L 4122 359 
Q 3791 134 3420 21 
Q 3050 -91 2638 -91 
Q 1578 -91 968 557 
Q 359 1206 359 2328 
Q 359 3453 968 4101 
Q 1578 4750 2638 4750 
Q 3056 4750 3426 4639 
Q 3797 4528 4122 4306 
z
" transform="scale(0.015625)"/>
       </defs>
       <use xlink:href="#DejaVuSans-43"/>
       <use xlink:href="#DejaVuSans-62" x="69.824219"/>
       <use xlink:href="#DejaVuSans-62" x="133.300781"/>
      </g>
     </g>
    </g>
    <g id="xtick_3">
     <g id="line2d_3">
      <g>
       <use xlink:href="#mf06d936c1c" x="127.165717" y="245.54" style="stroke: #000000; stroke-width: 0.8"/>
      </g>
     </g>
     <g id="text_3">
      <!-- Gbb -->
      <g transform="translate(129.925092 272.985312) rotate(-90) scale(0.1 -0.1)">
       <defs>
        <path id="DejaVuSans-47" d="M 3809 666 
L 3809 1919 
L 2778 1919 
L 2778 2438 
L 4434 2438 
L 4434 434 
Q 4069 175 3628 42 
Q 3188 -91 2688 -91 
Q 1594 -91 976 548 
Q 359 1188 359 2328 
Q 359 3472 976 4111 
Q 1594 4750 2688 4750 
Q 3144 4750 3555 4637 
Q 3966 4525 4313 4306 
L 4313 3634 
Q 3963 3931 3569 4081 
Q 3175 4231 2741 4231 
Q 1884 4231 1454 3753 
Q 1025 3275 1025 2328 
Q 1025 1384 1454 906 
Q 1884 428 2741 428 
Q 3075 428 3337 486 
Q 3600 544 3809 666 
z
" transform="scale(0.015625)"/>
       </defs>
       <use xlink:href="#DejaVuSans-47"/>
       <use xlink:href="#DejaVuSans-62" x="77.490234"/>
       <use xlink:href="#DejaVuSans-62" x="140.966797"/>
      </g>
     </g>
    </g>
    <g id="xtick_4">
     <g id="line2d_4">
      <g>
       <use xlink:href="#mf06d936c1c" x="144.338669" y="245.54" style="stroke: #000000; stroke-width: 0.8"/>
      </g>
     </g>
     <g id="text_4">
      <!-- Dbb -->
      <g transform="translate(147.098044 272.936875) rotate(-90) scale(0.1 -0.1)">
       <defs>
        <path id="DejaVuSans-44" d="M 1259 4147 
L 1259 519 
L 2022 519 
Q 2988 519 3436 956 
Q 3884 1394 3884 2338 
Q 3884 3275 3436 3711 
Q 2988 4147 2022 4147 
L 1259 4147 
z
M 628 4666 
L 1925 4666 
Q 3281 4666 3915 4102 
Q 4550 3538 4550 2338 
Q 4550 1131 3912 565 
Q 3275 0 1925 0 
L 628 0 
L 628 4666 
z
" transform="scale(0.015625)"/>
       </defs>
       <use xlink:href="#DejaVuSans-44"/>
       <use xlink:href="#DejaVuSans-62" x="77.001953"/>
       <use xlink:href="#DejaVuSans-62" x="140.478516"/>
      </g>
     </g>
    </g>
    <g id="xtick_5">
     <g id="line2d_5">
      <g>
       <use xlink:href="#mf06d936c1c" x="161.511621" y="245.54" style="stroke: #000000; stroke-width: 0.8"/>
      </g>
     </g>
     <g id="text_5">
      <!-- Abb -->
      <g transform="translate(164.270996 272.0775) rotate(-90) scale(0.1 -0.1)">
       <defs>
        <path id="DejaVuSans-41" d="M 2188 4044 
L 1331 1722 
L 3047 1722 
L 2188 4044 
z
M 1831 4666 
L 2547 4666 
L 4325 0 
L 3669 0 
L 3244 1197 
L 1141 1197 
L 716 0 
L 50 0 
L 1831 4666 
z
" transform="scale(0.015625)"/>
       </defs>
       <use xlink:href="#DejaVuSans-41"/>
       <use xlink:href="#DejaVuSans-62" x="68.408203"/>
       <use xlink:href="#DejaVuSans-62" x="131.884766"/>
      </g>
     </g>
    </g>
    <g id="xtick_6">
     <g id="line2d_6">
      <g>
       <use xlink:href="#mf06d936c1c" x="178.684573" y="245.54" style="stroke: #000000; stroke-width: 0.8"/>
      </g>
     </g>
     <g id="text_6">
      <!-- Ebb -->
      <g transform="translate(181.443948 271.555625) rotate(-90) scale(0.1 -0.1)">
       <defs>
        <path id="DejaVuSans-45" d="M 628 4666 
L 3578 4666 
L 3578 4134 
L 1259 4134 
L 1259 2753 
L 3481 2753 
L 3481 2222 
L 1259 2222 
L 1259 531 
L 3634 531 
L 3634 0 
L 628 0 
L 628 4666 
z
" transform="scale(0.015625)"/>
       </defs>
       <use xlink:href="#DejaVuSans-45"/>
       <use xlink:href="#DejaVuSans-62" x="63.183594"/>
       <use xlink:href="#DejaVuSans-62" x="126.660156"/>
      </g>
     </g>
    </g>
    <g id="xtick_7">
     <g id="line2d_7">
      <g>
       <use xlink:href="#mf06d936c1c" x="195.857525" y="245.54" style="stroke: #000000; stroke-width: 0.8"/>
      </g>
     </g>
     <g id="text_7">
      <!-- Bbb -->
      <g transform="translate(198.6169 272.097812) rotate(-90) scale(0.1 -0.1)">
       <defs>
        <path id="DejaVuSans-42" d="M 1259 2228 
L 1259 519 
L 2272 519 
Q 2781 519 3026 730 
Q 3272 941 3272 1375 
Q 3272 1813 3026 2020 
Q 2781 2228 2272 2228 
L 1259 2228 
z
M 1259 4147 
L 1259 2741 
L 2194 2741 
Q 2656 2741 2882 2914 
Q 3109 3088 3109 3444 
Q 3109 3797 2882 3972 
Q 2656 4147 2194 4147 
L 1259 4147 
z
M 628 4666 
L 2241 4666 
Q 2963 4666 3353 4366 
Q 3744 4066 3744 3513 
Q 3744 3084 3544 2831 
Q 3344 2578 2956 2516 
Q 3422 2416 3680 2098 
Q 3938 1781 3938 1306 
Q 3938 681 3513 340 
Q 3088 0 2303 0 
L 628 0 
L 628 4666 
z
" transform="scale(0.015625)"/>
       </defs>
       <use xlink:href="#DejaVuSans-42"/>
       <use xlink:href="#DejaVuSans-62" x="68.603516"/>
       <use xlink:href="#DejaVuSans-62" x="132.080078"/>
      </g>
     </g>
    </g>
    <g id="xtick_8">
     <g id="line2d_8">
      <g>
       <use xlink:href="#mf06d936c1c" x="213.030478" y="245.54" style="stroke: #000000; stroke-width: 0.8"/>
      </g>
     </g>
     <g id="text_8">
      <!-- Fb -->
      <g transform="translate(215.789853 264.64) rotate(-90) scale(0.1 -0.1)">
       <use xlink:href="#DejaVuSans-46"/>
       <use xlink:href="#DejaVuSans-62" x="57.519531"/>
      </g>
     </g>
    </g>
    <g id="xtick_9">
     <g id="line2d_9">
      <g>
       <use xlink:href="#mf06d936c1c" x="230.20343" y="245.54" style="stroke: #000000; stroke-width: 0.8"/>
      </g>
     </g>
     <g id="text_9">
      <!-- Cb -->
      <g transform="translate(232.962805 265.87125) rotate(-90) scale(0.1 -0.1)">
       <use xlink:href="#DejaVuSans-43"/>
       <use xlink:href="#DejaVuSans-62" x="69.824219"/>
      </g>
     </g>
    </g>
    <g id="xtick_10">
     <g id="line2d_10">
      <g>
       <use xlink:href="#mf06d936c1c" x="247.376382" y="245.54" style="stroke: #000000; stroke-width: 0.8"/>
      </g>
     </g>
     <g id="text_10">
      <!-- Gb -->
      <g transform="translate(250.135757 266.636875) rotate(-90) scale(0.1 -0.1)">
       <use xlink:href="#DejaVuSans-47"/>
       <use xlink:href="#DejaVuSans-62" x="77.490234"/>
      </g>
     </g>
    </g>
    <g id="xtick_11">
     <g id="line2d_11">
      <g>
       <use xlink:href="#mf06d936c1c" x="264.549334" y="245.54" style="stroke: #000000; stroke-width: 0.8"/>
      </g>
     </g>
     <g id="text_11">
      <!-- Db -->
      <g transform="translate(267.308709 266.588437) rotate(-90) scale(0.1 -0.1)">
       <use xlink:href="#DejaVuSans-44"/>
       <use xlink:href="#DejaVuSans-62" x="77.001953"/>
      </g>
     </g>
    </g>
    <g id="xtick_12">
     <g id="line2d_12">
      <g>
       <use xlink:href="#mf06d936c1c" x="281.722287" y="245.54" style="stroke: #000000; stroke-width: 0.8"/>
      </g>
     </g>
     <g id="text_12">
      <!-- Ab -->
      <g transform="translate(284.481662 265.729062) rotate(-90) scale(0.1 -0.1)">
       <use xlink:href="#DejaVuSans-41"/>
       <use xlink:href="#DejaVuSans-62" x="68.408203"/>
      </g>
     </g>
    </g>
    <g id="xtick_13">
     <g id="line2d_13">
      <g>
       <use xlink:href="#mf06d936c1c" x="298.895239" y="245.54" style="stroke: #000000; stroke-width: 0.8"/>
      </g>
     </g>
     <g id="text_13">
      <!-- Eb -->
      <g transform="translate(301.654614 265.207187) rotate(-90) scale(0.1 -0.1)">
       <use xlink:href="#DejaVuSans-45"/>
       <use xlink:href="#DejaVuSans-62" x="63.183594"/>
      </g>
     </g>
    </g>
    <g id="xtick_14">
     <g id="line2d_14">
      <g>
       <use xlink:href="#mf06d936c1c" x="316.068191" y="245.54" style="stroke: #000000; stroke-width: 0.8"/>
      </g>
     </g>
     <g id="text_14">
      <!-- Bb -->
      <g transform="translate(318.827566 265.749375) rotate(-90) scale(0.1 -0.1)">
       <use xlink:href="#DejaVuSans-42"/>
       <use xlink:href="#DejaVuSans-62" x="68.603516"/>
      </g>
     </g>
    </g>
    <g id="xtick_15">
     <g id="line2d_15">
      <g>
       <use xlink:href="#mf06d936c1c" x="333.241143" y="245.54" style="stroke: #000000; stroke-width: 0.8"/>
      </g>
     </g>
     <g id="text_15">
      <!-- F -->
      <g transform="translate(336.000518 258.291562) rotate(-90) scale(0.1 -0.1)">
       <use xlink:href="#DejaVuSans-46"/>
      </g>
     </g>
    </g>
    <g id="xtick_16">
     <g id="line2d_16">
      <g>
       <use xlink:href="#mf06d936c1c" x="350.414096" y="245.54" style="stroke: #000000; stroke-width: 0.8"/>
      </g>
     </g>
     <g id="text_16">
      <!-- C -->
      <g transform="translate(353.173471 259.522812) rotate(-90) scale(0.1 -0.1)">
       <use xlink:href="#DejaVuSans-43"/>
      </g>
     </g>
    </g>
    <g id="xtick_17">
     <g id="line2d_17">
      <g>
       <use xlink:href="#mf06d936c1c" x="367.587048" y="245.54" style="stroke: #000000; stroke-width: 0.8"/>
      </g>
     </g>
     <g id="text_17">
      <!-- G -->
      <g transform="translate(370.346423 260.288437) rotate(-90) scale(0.1 -0.1)">
       <use xlink:href="#DejaVuSans-47"/>
      </g>
     </g>
    </g>
    <g id="xtick_18">
     <g id="line2d_18">
      <g>
       <use xlink:href="#mf06d936c1c" x="384.76" y="245.54" style="stroke: #000000; stroke-width: 0.8"/>
      </g>
     </g>
     <g id="text_18">
      <!-- D -->
      <g transform="translate(387.519375 260.24) rotate(-90) scale(0.1 -0.1)">
       <use xlink:href="#DejaVuSans-44"/>
      </g>
     </g>
    </g>
    <g id="xtick_19">
     <g id="line2d_19">
      <g>
       <use xlink:href="#mf06d936c1c" x="401.932952" y="245.54" style="stroke: #000000; stroke-width: 0.8"/>
      </g>
     </g>
     <g id="text_19">
      <!-- A -->
      <g transform="translate(404.692327 259.380625) rotate(-90) scale(0.1 -0.1)">
       <use xlink:href="#DejaVuSans-41"/>
      </g>
     </g>
    </g>
    <g id="xtick_20">
     <g id="line2d_20">
      <g>
       <use xlink:href="#mf06d936c1c" x="419.105904" y="245.54" style="stroke: #000000; stroke-width: 0.8"/>
      </g>
     </g>
     <g id="text_20">
      <!-- E -->
      <g transform="translate(421.865279 258.85875) rotate(-90) scale(0.1 -0.1)">
       <use xlink:href="#DejaVuSans-45"/>
      </g>
     </g>
    </g>
    <g id="xtick_21">
     <g id="line2d_21">
      <g>
       <use xlink:href="#mf06d936c1c" x="436.278857" y="245.54" style="stroke: #000000; stroke-width: 0.8"/>
      </g>
     </g>
     <g id="text_21">
      <!-- B -->
      <g transform="translate(439.038232 259.400937) rotate(-90) scale(0.1 -0.1)">
       <use xlink:href="#DejaVuSans-42"/>
      </g>
     </g>
    </g>
    <g id="xtick_22">
     <g id="line2d_22">
      <g>
       <use xlink:href="#mf06d936c1c" x="453.451809" y="245.54" style="stroke: #000000; stroke-width: 0.8"/>
      </g>
     </g>
     <g id="text_22">
      <!-- F# -->
      <g transform="translate(456.211184 266.67125) rotate(-90) scale(0.1 -0.1)">
       <defs>
        <path id="DejaVuSans-23" d="M 3272 2816 
L 2363 2816 
L 2100 1772 
L 3016 1772 
L 3272 2816 
z
M 2803 4594 
L 2478 3297 
L 3391 3297 
L 3719 4594 
L 4219 4594 
L 3897 3297 
L 4872 3297 
L 4872 2816 
L 3775 2816 
L 3519 1772 
L 4513 1772 
L 4513 1294 
L 3397 1294 
L 3072 0 
L 2572 0 
L 2894 1294 
L 1978 1294 
L 1656 0 
L 1153 0 
L 1478 1294 
L 494 1294 
L 494 1772 
L 1594 1772 
L 1856 2816 
L 850 2816 
L 850 3297 
L 1978 3297 
L 2297 4594 
L 2803 4594 
z
" transform="scale(0.015625)"/>
       </defs>
       <use xlink:href="#DejaVuSans-46"/>
       <use xlink:href="#DejaVuSans-23" x="57.519531"/>
      </g>
     </g>
    </g>
    <g id="xtick_23">
     <g id="line2d_23">
      <g>
       <use xlink:href="#mf06d936c1c" x="470.624761" y="245.54" style="stroke: #000000; stroke-width: 0.8"/>
      </g>
     </g>
     <g id="text_23">
      <!-- C# -->
      <g transform="translate(473.384136 267.9025) rotate(-90) scale(0.1 -0.1)">
       <use xlink:href="#DejaVuSans-43"/>
       <use xlink:href="#DejaVuSans-23" x="69.824219"/>
      </g>
     </g>
    </g>
    <g id="xtick_24">
     <g id="line2d_24">
      <g>
       <use xlink:href="#mf06d936c1c" x="487.797713" y="245.54" style="stroke: #000000; stroke-width: 0.8"/>
      </g>
     </g>
     <g id="text_24">
      <!-- G# -->
      <g transform="translate(490.557088 268.668125) rotate(-90) scale(0.1 -0.1)">
       <use xlink:href="#DejaVuSans-47"/>
       <use xlink:href="#DejaVuSans-23" x="77.490234"/>
      </g>
     </g>
    </g>
    <g id="xtick_25">
     <g id="line2d_25">
      <g>
       <use xlink:href="#mf06d936c1c" x="504.970666" y="245.54" style="stroke: #000000; stroke-width: 0.8"/>
      </g>
     </g>
     <g id="text_25">
      <!-- D# -->
      <g transform="translate(507.730041 268.619687) rotate(-90) scale(0.1 -0.1)">
       <use xlink:href="#DejaVuSans-44"/>
       <use xlink:href="#DejaVuSans-23" x="77.001953"/>
      </g>
     </g>
    </g>
    <g id="xtick_26">
     <g id="line2d_26">
      <g>
       <use xlink:href="#mf06d936c1c" x="522.143618" y="245.54" style="stroke: #000000; stroke-width: 0.8"/>
      </g>
     </g>
     <g id="text_26">
      <!-- A# -->
      <g transform="translate(524.902993 267.760312) rotate(-90) scale(0.1 -0.1)">
       <use xlink:href="#DejaVuSans-41"/>
       <use xlink:href="#DejaVuSans-23" x="68.408203"/>
      </g>
     </g>
    </g>
    <g id="xtick_27">
     <g id="line2d_27">
      <g>
       <use xlink:href="#mf06d936c1c" x="539.31657" y="245.54" style="stroke: #000000; stroke-width: 0.8"/>
      </g>
     </g>
     <g id="text_27">
      <!-- E# -->
      <g transform="translate(542.075945 267.238437) rotate(-90) scale(0.1 -0.1)">
       <use xlink:href="#DejaVuSans-45"/>
       <use xlink:href="#DejaVuSans-23" x="63.183594"/>
      </g>
     </g>
    </g>
    <g id="xtick_28">
     <g id="line2d_28">
      <g>
       <use xlink:href="#mf06d936c1c" x="556.489522" y="245.54" style="stroke: #000000; stroke-width: 0.8"/>
      </g>
     </g>
     <g id="text_28">
      <!-- B# -->
      <g transform="translate(559.248897 267.780625) rotate(-90) scale(0.1 -0.1)">
       <use xlink:href="#DejaVuSans-42"/>
       <use xlink:href="#DejaVuSans-23" x="68.603516"/>
      </g>
     </g>
    </g>
    <g id="xtick_29">
     <g id="line2d_29">
      <g>
       <use xlink:href="#mf06d936c1c" x="573.662475" y="245.54" style="stroke: #000000; stroke-width: 0.8"/>
      </g>
     </g>
     <g id="text_29">
      <!-- F## -->
      <g transform="translate(576.42185 275.050937) rotate(-90) scale(0.1 -0.1)">
       <use xlink:href="#DejaVuSans-46"/>
       <use xlink:href="#DejaVuSans-23" x="57.519531"/>
       <use xlink:href="#DejaVuSans-23" x="141.308594"/>
      </g>
     </g>
    </g>
    <g id="xtick_30">
     <g id="line2d_30">
      <g>
       <use xlink:href="#mf06d936c1c" x="590.835427" y="245.54" style="stroke: #000000; stroke-width: 0.8"/>
      </g>
     </g>
     <g id="text_30">
      <!-- C## -->
      <g transform="translate(593.594802 276.282187) rotate(-90) scale(0.1 -0.1)">
       <use xlink:href="#DejaVuSans-43"/>
       <use xlink:href="#DejaVuSans-23" x="69.824219"/>
       <use xlink:href="#DejaVuSans-23" x="153.613281"/>
      </g>
     </g>
    </g>
    <g id="xtick_31">
     <g id="line2d_31">
      <g>
       <use xlink:href="#mf06d936c1c" x="608.008379" y="245.54" style="stroke: #000000; stroke-width: 0.8"/>
      </g>
     </g>
     <g id="text_31">
      <!-- G## -->
      <g transform="translate(610.767754 277.047812) rotate(-90) scale(0.1 -0.1)">
       <use xlink:href="#DejaVuSans-47"/>
       <use xlink:href="#DejaVuSans-23" x="77.490234"/>
       <use xlink:href="#DejaVuSans-23" x="161.279297"/>
      </g>
     </g>
    </g>
    <g id="xtick_32">
     <g id="line2d_32">
      <g>
       <use xlink:href="#mf06d936c1c" x="625.181331" y="245.54" style="stroke: #000000; stroke-width: 0.8"/>
      </g>
     </g>
     <g id="text_32">
      <!-- D## -->
      <g transform="translate(627.940706 276.999375) rotate(-90) scale(0.1 -0.1)">
       <use xlink:href="#DejaVuSans-44"/>
       <use xlink:href="#DejaVuSans-23" x="77.001953"/>
       <use xlink:href="#DejaVuSans-23" x="160.791016"/>
      </g>
     </g>
    </g>
    <g id="xtick_33">
     <g id="line2d_33">
      <g>
       <use xlink:href="#mf06d936c1c" x="642.354283" y="245.54" style="stroke: #000000; stroke-width: 0.8"/>
      </g>
     </g>
     <g id="text_33">
      <!-- A## -->
      <g transform="translate(645.113658 276.14) rotate(-90) scale(0.1 -0.1)">
       <use xlink:href="#DejaVuSans-41"/>
       <use xlink:href="#DejaVuSans-23" x="68.408203"/>
       <use xlink:href="#DejaVuSans-23" x="152.197266"/>
      </g>
     </g>
    </g>
    <g id="xtick_34">
     <g id="line2d_34">
      <g>
       <use xlink:href="#mf06d936c1c" x="659.527236" y="245.54" style="stroke: #000000; stroke-width: 0.8"/>
      </g>
     </g>
     <g id="text_34">
      <!-- E## -->
      <g transform="translate(662.286611 275.618125) rotate(-90) scale(0.1 -0.1)">
       <use xlink:href="#DejaVuSans-45"/>
       <use xlink:href="#DejaVuSans-23" x="63.183594"/>
       <use xlink:href="#DejaVuSans-23" x="146.972656"/>
      </g>
     </g>
    </g>
    <g id="xtick_35">
     <g id="line2d_35">
      <g>
       <use xlink:href="#mf06d936c1c" x="676.700188" y="245.54" style="stroke: #000000; stroke-width: 0.8"/>
      </g>
     </g>
     <g id="text_35">
      <!-- B## -->
      <g transform="translate(679.459563 276.160312) rotate(-90) scale(0.1 -0.1)">
       <use xlink:href="#DejaVuSans-42"/>
       <use xlink:href="#DejaVuSans-23" x="68.603516"/>
       <use xlink:href="#DejaVuSans-23" x="152.392578"/>
      </g>
     </g>
    </g>
   </g>
   <g id="matplotlib.axis_2">
    <g id="ytick_1">
     <g id="line2d_36">
      <defs>
       <path id="mefd7d462cf" d="M 0 0 
L -3.5 0 
" style="stroke: #000000; stroke-width: 0.8"/>
      </defs>
      <g>
       <use xlink:href="#mefd7d462cf" x="60.32" y="245.54" style="stroke: #000000; stroke-width: 0.8"/>
      </g>
     </g>
     <g id="text_36">
      <!-- 0.000 -->
      <g transform="translate(24.691875 249.339219) scale(0.1 -0.1)">
       <defs>
        <path id="DejaVuSans-30" d="M 2034 4250 
Q 1547 4250 1301 3770 
Q 1056 3291 1056 2328 
Q 1056 1369 1301 889 
Q 1547 409 2034 409 
Q 2525 409 2770 889 
Q 3016 1369 3016 2328 
Q 3016 3291 2770 3770 
Q 2525 4250 2034 4250 
z
M 2034 4750 
Q 2819 4750 3233 4129 
Q 3647 3509 3647 2328 
Q 3647 1150 3233 529 
Q 2819 -91 2034 -91 
Q 1250 -91 836 529 
Q 422 1150 422 2328 
Q 422 3509 836 4129 
Q 1250 4750 2034 4750 
z
" transform="scale(0.015625)"/>
        <path id="DejaVuSans-2e" d="M 684 794 
L 1344 794 
L 1344 0 
L 684 0 
L 684 794 
z
" transform="scale(0.015625)"/>
       </defs>
       <use xlink:href="#DejaVuSans-30"/>
       <use xlink:href="#DejaVuSans-2e" x="63.623047"/>
       <use xlink:href="#DejaVuSans-30" x="95.410156"/>
       <use xlink:href="#DejaVuSans-30" x="159.033203"/>
       <use xlink:href="#DejaVuSans-30" x="222.65625"/>
      </g>
     </g>
    </g>
    <g id="ytick_2">
     <g id="line2d_37">
      <g>
       <use xlink:href="#mefd7d462cf" x="60.32" y="216.873594" style="stroke: #000000; stroke-width: 0.8"/>
      </g>
     </g>
     <g id="text_37">
      <!-- 0.025 -->
      <g transform="translate(24.691875 220.672813) scale(0.1 -0.1)">
       <defs>
        <path id="DejaVuSans-32" d="M 1228 531 
L 3431 531 
L 3431 0 
L 469 0 
L 469 531 
Q 828 903 1448 1529 
Q 2069 2156 2228 2338 
Q 2531 2678 2651 2914 
Q 2772 3150 2772 3378 
Q 2772 3750 2511 3984 
Q 2250 4219 1831 4219 
Q 1534 4219 1204 4116 
Q 875 4013 500 3803 
L 500 4441 
Q 881 4594 1212 4672 
Q 1544 4750 1819 4750 
Q 2544 4750 2975 4387 
Q 3406 4025 3406 3419 
Q 3406 3131 3298 2873 
Q 3191 2616 2906 2266 
Q 2828 2175 2409 1742 
Q 1991 1309 1228 531 
z
" transform="scale(0.015625)"/>
        <path id="DejaVuSans-35" d="M 691 4666 
L 3169 4666 
L 3169 4134 
L 1269 4134 
L 1269 2991 
Q 1406 3038 1543 3061 
Q 1681 3084 1819 3084 
Q 2600 3084 3056 2656 
Q 3513 2228 3513 1497 
Q 3513 744 3044 326 
Q 2575 -91 1722 -91 
Q 1428 -91 1123 -41 
Q 819 9 494 109 
L 494 744 
Q 775 591 1075 516 
Q 1375 441 1709 441 
Q 2250 441 2565 725 
Q 2881 1009 2881 1497 
Q 2881 1984 2565 2268 
Q 2250 2553 1709 2553 
Q 1456 2553 1204 2497 
Q 953 2441 691 2322 
L 691 4666 
z
" transform="scale(0.015625)"/>
       </defs>
       <use xlink:href="#DejaVuSans-30"/>
       <use xlink:href="#DejaVuSans-2e" x="63.623047"/>
       <use xlink:href="#DejaVuSans-30" x="95.410156"/>
       <use xlink:href="#DejaVuSans-32" x="159.033203"/>
       <use xlink:href="#DejaVuSans-35" x="222.65625"/>
      </g>
     </g>
    </g>
    <g id="ytick_3">
     <g id="line2d_38">
      <g>
       <use xlink:href="#mefd7d462cf" x="60.32" y="188.207189" style="stroke: #000000; stroke-width: 0.8"/>
      </g>
     </g>
     <g id="text_38">
      <!-- 0.050 -->
      <g transform="translate(24.691875 192.006408) scale(0.1 -0.1)">
       <use xlink:href="#DejaVuSans-30"/>
       <use xlink:href="#DejaVuSans-2e" x="63.623047"/>
       <use xlink:href="#DejaVuSans-30" x="95.410156"/>
       <use xlink:href="#DejaVuSans-35" x="159.033203"/>
       <use xlink:href="#DejaVuSans-30" x="222.65625"/>
      </g>
     </g>
    </g>
    <g id="ytick_4">
     <g id="line2d_39">
      <g>
       <use xlink:href="#mefd7d462cf" x="60.32" y="159.540783" style="stroke: #000000; stroke-width: 0.8"/>
      </g>
     </g>
     <g id="text_39">
      <!-- 0.075 -->
      <g transform="translate(24.691875 163.340002) scale(0.1 -0.1)">
       <defs>
        <path id="DejaVuSans-37" d="M 525 4666 
L 3525 4666 
L 3525 4397 
L 1831 0 
L 1172 0 
L 2766 4134 
L 525 4134 
L 525 4666 
z
" transform="scale(0.015625)"/>
       </defs>
       <use xlink:href="#DejaVuSans-30"/>
       <use xlink:href="#DejaVuSans-2e" x="63.623047"/>
       <use xlink:href="#DejaVuSans-30" x="95.410156"/>
       <use xlink:href="#DejaVuSans-37" x="159.033203"/>
       <use xlink:href="#DejaVuSans-35" x="222.65625"/>
      </g>
     </g>
    </g>
    <g id="ytick_5">
     <g id="line2d_40">
      <g>
       <use xlink:href="#mefd7d462cf" x="60.32" y="130.874378" style="stroke: #000000; stroke-width: 0.8"/>
      </g>
     </g>
     <g id="text_40">
      <!-- 0.100 -->
      <g transform="translate(24.691875 134.673597) scale(0.1 -0.1)">
       <defs>
        <path id="DejaVuSans-31" d="M 794 531 
L 1825 531 
L 1825 4091 
L 703 3866 
L 703 4441 
L 1819 4666 
L 2450 4666 
L 2450 531 
L 3481 531 
L 3481 0 
L 794 0 
L 794 531 
z
" transform="scale(0.015625)"/>
       </defs>
       <use xlink:href="#DejaVuSans-30"/>
       <use xlink:href="#DejaVuSans-2e" x="63.623047"/>
       <use xlink:href="#DejaVuSans-31" x="95.410156"/>
       <use xlink:href="#DejaVuSans-30" x="159.033203"/>
       <use xlink:href="#DejaVuSans-30" x="222.65625"/>
      </g>
     </g>
    </g>
    <g id="ytick_6">
     <g id="line2d_41">
      <g>
       <use xlink:href="#mefd7d462cf" x="60.32" y="102.207972" style="stroke: #000000; stroke-width: 0.8"/>
      </g>
     </g>
     <g id="text_41">
      <!-- 0.125 -->
      <g transform="translate(24.691875 106.007191) scale(0.1 -0.1)">
       <use xlink:href="#DejaVuSans-30"/>
       <use xlink:href="#DejaVuSans-2e" x="63.623047"/>
       <use xlink:href="#DejaVuSans-31" x="95.410156"/>
       <use xlink:href="#DejaVuSans-32" x="159.033203"/>
       <use xlink:href="#DejaVuSans-35" x="222.65625"/>
      </g>
     </g>
    </g>
    <g id="ytick_7">
     <g id="line2d_42">
      <g>
       <use xlink:href="#mefd7d462cf" x="60.32" y="73.541567" style="stroke: #000000; stroke-width: 0.8"/>
      </g>
     </g>
     <g id="text_42">
      <!-- 0.150 -->
      <g transform="translate(24.691875 77.340786) scale(0.1 -0.1)">
       <use xlink:href="#DejaVuSans-30"/>
       <use xlink:href="#DejaVuSans-2e" x="63.623047"/>
       <use xlink:href="#DejaVuSans-31" x="95.410156"/>
       <use xlink:href="#DejaVuSans-35" x="159.033203"/>
       <use xlink:href="#DejaVuSans-30" x="222.65625"/>
      </g>
     </g>
    </g>
    <g id="ytick_8">
     <g id="line2d_43">
      <g>
       <use xlink:href="#mefd7d462cf" x="60.32" y="44.875161" style="stroke: #000000; stroke-width: 0.8"/>
      </g>
     </g>
     <g id="text_43">
      <!-- 0.175 -->
      <g transform="translate(24.691875 48.67438) scale(0.1 -0.1)">
       <use xlink:href="#DejaVuSans-30"/>
       <use xlink:href="#DejaVuSans-2e" x="63.623047"/>
       <use xlink:href="#DejaVuSans-31" x="95.410156"/>
       <use xlink:href="#DejaVuSans-37" x="159.033203"/>
       <use xlink:href="#DejaVuSans-35" x="222.65625"/>
      </g>
     </g>
    </g>
    <g id="ytick_9">
     <g id="line2d_44">
      <g>
       <use xlink:href="#mefd7d462cf" x="60.32" y="16.208756" style="stroke: #000000; stroke-width: 0.8"/>
      </g>
     </g>
     <g id="text_44">
      <!-- 0.200 -->
      <g transform="translate(24.691875 20.007975) scale(0.1 -0.1)">
       <use xlink:href="#DejaVuSans-30"/>
       <use xlink:href="#DejaVuSans-2e" x="63.623047"/>
       <use xlink:href="#DejaVuSans-32" x="95.410156"/>
       <use xlink:href="#DejaVuSans-30" x="159.033203"/>
       <use xlink:href="#DejaVuSans-30" x="222.65625"/>
      </g>
     </g>
    </g>
    <g id="text_45">
     <!-- Normalized probability -->
     <g transform="translate(18.612188 184.790313) rotate(-90) scale(0.1 -0.1)">
      <defs>
       <path id="DejaVuSans-4e" d="M 628 4666 
L 1478 4666 
L 3547 763 
L 3547 4666 
L 4159 4666 
L 4159 0 
L 3309 0 
L 1241 3903 
L 1241 0 
L 628 0 
L 628 4666 
z
" transform="scale(0.015625)"/>
       <path id="DejaVuSans-6f" d="M 1959 3097 
Q 1497 3097 1228 2736 
Q 959 2375 959 1747 
Q 959 1119 1226 758 
Q 1494 397 1959 397 
Q 2419 397 2687 759 
Q 2956 1122 2956 1747 
Q 2956 2369 2687 2733 
Q 2419 3097 1959 3097 
z
M 1959 3584 
Q 2709 3584 3137 3096 
Q 3566 2609 3566 1747 
Q 3566 888 3137 398 
Q 2709 -91 1959 -91 
Q 1206 -91 779 398 
Q 353 888 353 1747 
Q 353 2609 779 3096 
Q 1206 3584 1959 3584 
z
" transform="scale(0.015625)"/>
       <path id="DejaVuSans-72" d="M 2631 2963 
Q 2534 3019 2420 3045 
Q 2306 3072 2169 3072 
Q 1681 3072 1420 2755 
Q 1159 2438 1159 1844 
L 1159 0 
L 581 0 
L 581 3500 
L 1159 3500 
L 1159 2956 
Q 1341 3275 1631 3429 
Q 1922 3584 2338 3584 
Q 2397 3584 2469 3576 
Q 2541 3569 2628 3553 
L 2631 2963 
z
" transform="scale(0.015625)"/>
       <path id="DejaVuSans-6d" d="M 3328 2828 
Q 3544 3216 3844 3400 
Q 4144 3584 4550 3584 
Q 5097 3584 5394 3201 
Q 5691 2819 5691 2113 
L 5691 0 
L 5113 0 
L 5113 2094 
Q 5113 2597 4934 2840 
Q 4756 3084 4391 3084 
Q 3944 3084 3684 2787 
Q 3425 2491 3425 1978 
L 3425 0 
L 2847 0 
L 2847 2094 
Q 2847 2600 2669 2842 
Q 2491 3084 2119 3084 
Q 1678 3084 1418 2786 
Q 1159 2488 1159 1978 
L 1159 0 
L 581 0 
L 581 3500 
L 1159 3500 
L 1159 2956 
Q 1356 3278 1631 3431 
Q 1906 3584 2284 3584 
Q 2666 3584 2933 3390 
Q 3200 3197 3328 2828 
z
" transform="scale(0.015625)"/>
       <path id="DejaVuSans-61" d="M 2194 1759 
Q 1497 1759 1228 1600 
Q 959 1441 959 1056 
Q 959 750 1161 570 
Q 1363 391 1709 391 
Q 2188 391 2477 730 
Q 2766 1069 2766 1631 
L 2766 1759 
L 2194 1759 
z
M 3341 1997 
L 3341 0 
L 2766 0 
L 2766 531 
Q 2569 213 2275 61 
Q 1981 -91 1556 -91 
Q 1019 -91 701 211 
Q 384 513 384 1019 
Q 384 1609 779 1909 
Q 1175 2209 1959 2209 
L 2766 2209 
L 2766 2266 
Q 2766 2663 2505 2880 
Q 2244 3097 1772 3097 
Q 1472 3097 1187 3025 
Q 903 2953 641 2809 
L 641 3341 
Q 956 3463 1253 3523 
Q 1550 3584 1831 3584 
Q 2591 3584 2966 3190 
Q 3341 2797 3341 1997 
z
" transform="scale(0.015625)"/>
       <path id="DejaVuSans-6c" d="M 603 4863 
L 1178 4863 
L 1178 0 
L 603 0 
L 603 4863 
z
" transform="scale(0.015625)"/>
       <path id="DejaVuSans-69" d="M 603 3500 
L 1178 3500 
L 1178 0 
L 603 0 
L 603 3500 
z
M 603 4863 
L 1178 4863 
L 1178 4134 
L 603 4134 
L 603 4863 
z
" transform="scale(0.015625)"/>
       <path id="DejaVuSans-7a" d="M 353 3500 
L 3084 3500 
L 3084 2975 
L 922 459 
L 3084 459 
L 3084 0 
L 275 0 
L 275 525 
L 2438 3041 
L 353 3041 
L 353 3500 
z
" transform="scale(0.015625)"/>
       <path id="DejaVuSans-65" d="M 3597 1894 
L 3597 1613 
L 953 1613 
Q 991 1019 1311 708 
Q 1631 397 2203 397 
Q 2534 397 2845 478 
Q 3156 559 3463 722 
L 3463 178 
Q 3153 47 2828 -22 
Q 2503 -91 2169 -91 
Q 1331 -91 842 396 
Q 353 884 353 1716 
Q 353 2575 817 3079 
Q 1281 3584 2069 3584 
Q 2775 3584 3186 3129 
Q 3597 2675 3597 1894 
z
M 3022 2063 
Q 3016 2534 2758 2815 
Q 2500 3097 2075 3097 
Q 1594 3097 1305 2825 
Q 1016 2553 972 2059 
L 3022 2063 
z
" transform="scale(0.015625)"/>
       <path id="DejaVuSans-64" d="M 2906 2969 
L 2906 4863 
L 3481 4863 
L 3481 0 
L 2906 0 
L 2906 525 
Q 2725 213 2448 61 
Q 2172 -91 1784 -91 
Q 1150 -91 751 415 
Q 353 922 353 1747 
Q 353 2572 751 3078 
Q 1150 3584 1784 3584 
Q 2172 3584 2448 3432 
Q 2725 3281 2906 2969 
z
M 947 1747 
Q 947 1113 1208 752 
Q 1469 391 1925 391 
Q 2381 391 2643 752 
Q 2906 1113 2906 1747 
Q 2906 2381 2643 2742 
Q 2381 3103 1925 3103 
Q 1469 3103 1208 2742 
Q 947 2381 947 1747 
z
" transform="scale(0.015625)"/>
       <path id="DejaVuSans-20" transform="scale(0.015625)"/>
       <path id="DejaVuSans-70" d="M 1159 525 
L 1159 -1331 
L 581 -1331 
L 581 3500 
L 1159 3500 
L 1159 2969 
Q 1341 3281 1617 3432 
Q 1894 3584 2278 3584 
Q 2916 3584 3314 3078 
Q 3713 2572 3713 1747 
Q 3713 922 3314 415 
Q 2916 -91 2278 -91 
Q 1894 -91 1617 61 
Q 1341 213 1159 525 
z
M 3116 1747 
Q 3116 2381 2855 2742 
Q 2594 3103 2138 3103 
Q 1681 3103 1420 2742 
Q 1159 2381 1159 1747 
Q 1159 1113 1420 752 
Q 1681 391 2138 391 
Q 2594 391 2855 752 
Q 3116 1113 3116 1747 
z
" transform="scale(0.015625)"/>
       <path id="DejaVuSans-74" d="M 1172 4494 
L 1172 3500 
L 2356 3500 
L 2356 3053 
L 1172 3053 
L 1172 1153 
Q 1172 725 1289 603 
Q 1406 481 1766 481 
L 2356 481 
L 2356 0 
L 1766 0 
Q 1100 0 847 248 
Q 594 497 594 1153 
L 594 3053 
L 172 3053 
L 172 3500 
L 594 3500 
L 594 4494 
L 1172 4494 
z
" transform="scale(0.015625)"/>
       <path id="DejaVuSans-79" d="M 2059 -325 
Q 1816 -950 1584 -1140 
Q 1353 -1331 966 -1331 
L 506 -1331 
L 506 -850 
L 844 -850 
Q 1081 -850 1212 -737 
Q 1344 -625 1503 -206 
L 1606 56 
L 191 3500 
L 800 3500 
L 1894 763 
L 2988 3500 
L 3597 3500 
L 2059 -325 
z
" transform="scale(0.015625)"/>
      </defs>
      <use xlink:href="#DejaVuSans-4e"/>
      <use xlink:href="#DejaVuSans-6f" x="74.804688"/>
      <use xlink:href="#DejaVuSans-72" x="135.986328"/>
      <use xlink:href="#DejaVuSans-6d" x="175.349609"/>
      <use xlink:href="#DejaVuSans-61" x="272.761719"/>
      <use xlink:href="#DejaVuSans-6c" x="334.041016"/>
      <use xlink:href="#DejaVuSans-69" x="361.824219"/>
      <use xlink:href="#DejaVuSans-7a" x="389.607422"/>
      <use xlink:href="#DejaVuSans-65" x="442.097656"/>
      <use xlink:href="#DejaVuSans-64" x="503.621094"/>
      <use xlink:href="#DejaVuSans-20" x="567.097656"/>
      <use xlink:href="#DejaVuSans-70" x="598.884766"/>
      <use xlink:href="#DejaVuSans-72" x="662.361328"/>
      <use xlink:href="#DejaVuSans-6f" x="701.224609"/>
      <use xlink:href="#DejaVuSans-62" x="762.40625"/>
      <use xlink:href="#DejaVuSans-61" x="825.882812"/>
      <use xlink:href="#DejaVuSans-62" x="887.162109"/>
      <use xlink:href="#DejaVuSans-69" x="950.638672"/>
      <use xlink:href="#DejaVuSans-6c" x="978.421875"/>
      <use xlink:href="#DejaVuSans-69" x="1006.205078"/>
      <use xlink:href="#DejaVuSans-74" x="1033.988281"/>
      <use xlink:href="#DejaVuSans-79" x="1073.197266"/>
     </g>
    </g>
   </g>
   <g id="line2d_45">
    <path d="M 92.819812 245.539793 
L 109.992764 245.539488 
L 127.165717 245.539027 
L 144.338669 245.537082 
L 161.511621 245.521584 
L 178.684573 245.494256 
L 195.857525 245.461202 
L 213.030478 245.325194 
L 230.20343 244.125259 
L 247.376382 241.963158 
L 264.549334 240.325971 
L 281.722287 233.796831 
L 298.895239 169.568833 
L 316.068191 49.082679 
L 333.241143 65.331352 
L 350.414096 96.009713 
L 367.587048 83.480443 
L 384.76 69.93434 
L 401.932952 133.254372 
L 419.105904 218.06743 
L 436.278857 229.571806 
L 453.451809 231.840518 
L 470.624761 235.914889 
L 487.797713 243.121003 
L 504.970666 244.369595 
L 522.143618 244.654372 
L 539.31657 244.909418 
L 556.489522 245.369656 
L 573.662475 245.464492 
L 590.835427 245.487359 
L 608.008379 245.502898 
L 625.181331 245.529294 
L 642.354283 245.535488 
L 659.527236 245.537038 
L 676.700188 245.537948 
" clip-path="url(#p9211aac0ff)" style="fill: none; stroke: #1f77b4; stroke-width: 1.5; stroke-linecap: square"/>
    <defs>
     <path id="m3d4546f7fb" d="M 0 3 
C 0.795609 3 1.55874 2.683901 2.12132 2.12132 
C 2.683901 1.55874 3 0.795609 3 0 
C 3 -0.795609 2.683901 -1.55874 2.12132 -2.12132 
C 1.55874 -2.683901 0.795609 -3 0 -3 
C -0.795609 -3 -1.55874 -2.683901 -2.12132 -2.12132 
C -2.683901 -1.55874 -3 -0.795609 -3 0 
C -3 0.795609 -2.683901 1.55874 -2.12132 2.12132 
C -1.55874 2.683901 -0.795609 3 0 3 
z
" style="stroke: #1f77b4"/>
    </defs>
    <g clip-path="url(#p9211aac0ff)">
     <use xlink:href="#m3d4546f7fb" x="92.819812" y="245.539793" style="fill: #1f77b4; stroke: #1f77b4"/>
     <use xlink:href="#m3d4546f7fb" x="109.992764" y="245.539488" style="fill: #1f77b4; stroke: #1f77b4"/>
     <use xlink:href="#m3d4546f7fb" x="127.165717" y="245.539027" style="fill: #1f77b4; stroke: #1f77b4"/>
     <use xlink:href="#m3d4546f7fb" x="144.338669" y="245.537082" style="fill: #1f77b4; stroke: #1f77b4"/>
     <use xlink:href="#m3d4546f7fb" x="161.511621" y="245.521584" style="fill: #1f77b4; stroke: #1f77b4"/>
     <use xlink:href="#m3d4546f7fb" x="178.684573" y="245.494256" style="fill: #1f77b4; stroke: #1f77b4"/>
     <use xlink:href="#m3d4546f7fb" x="195.857525" y="245.461202" style="fill: #1f77b4; stroke: #1f77b4"/>
     <use xlink:href="#m3d4546f7fb" x="213.030478" y="245.325194" style="fill: #1f77b4; stroke: #1f77b4"/>
     <use xlink:href="#m3d4546f7fb" x="230.20343" y="244.125259" style="fill: #1f77b4; stroke: #1f77b4"/>
     <use xlink:href="#m3d4546f7fb" x="247.376382" y="241.963158" style="fill: #1f77b4; stroke: #1f77b4"/>
     <use xlink:href="#m3d4546f7fb" x="264.549334" y="240.325971" style="fill: #1f77b4; stroke: #1f77b4"/>
     <use xlink:href="#m3d4546f7fb" x="281.722287" y="233.796831" style="fill: #1f77b4; stroke: #1f77b4"/>
     <use xlink:href="#m3d4546f7fb" x="298.895239" y="169.568833" style="fill: #1f77b4; stroke: #1f77b4"/>
     <use xlink:href="#m3d4546f7fb" x="316.068191" y="49.082679" style="fill: #1f77b4; stroke: #1f77b4"/>
     <use xlink:href="#m3d4546f7fb" x="333.241143" y="65.331352" style="fill: #1f77b4; stroke: #1f77b4"/>
     <use xlink:href="#m3d4546f7fb" x="350.414096" y="96.009713" style="fill: #1f77b4; stroke: #1f77b4"/>
     <use xlink:href="#m3d4546f7fb" x="367.587048" y="83.480443" style="fill: #1f77b4; stroke: #1f77b4"/>
     <use xlink:href="#m3d4546f7fb" x="384.76" y="69.93434" style="fill: #1f77b4; stroke: #1f77b4"/>
     <use xlink:href="#m3d4546f7fb" x="401.932952" y="133.254372" style="fill: #1f77b4; stroke: #1f77b4"/>
     <use xlink:href="#m3d4546f7fb" x="419.105904" y="218.06743" style="fill: #1f77b4; stroke: #1f77b4"/>
     <use xlink:href="#m3d4546f7fb" x="436.278857" y="229.571806" style="fill: #1f77b4; stroke: #1f77b4"/>
     <use xlink:href="#m3d4546f7fb" x="453.451809" y="231.840518" style="fill: #1f77b4; stroke: #1f77b4"/>
     <use xlink:href="#m3d4546f7fb" x="470.624761" y="235.914889" style="fill: #1f77b4; stroke: #1f77b4"/>
     <use xlink:href="#m3d4546f7fb" x="487.797713" y="243.121003" style="fill: #1f77b4; stroke: #1f77b4"/>
     <use xlink:href="#m3d4546f7fb" x="504.970666" y="244.369595" style="fill: #1f77b4; stroke: #1f77b4"/>
     <use xlink:href="#m3d4546f7fb" x="522.143618" y="244.654372" style="fill: #1f77b4; stroke: #1f77b4"/>
     <use xlink:href="#m3d4546f7fb" x="539.31657" y="244.909418" style="fill: #1f77b4; stroke: #1f77b4"/>
     <use xlink:href="#m3d4546f7fb" x="556.489522" y="245.369656" style="fill: #1f77b4; stroke: #1f77b4"/>
     <use xlink:href="#m3d4546f7fb" x="573.662475" y="245.464492" style="fill: #1f77b4; stroke: #1f77b4"/>
     <use xlink:href="#m3d4546f7fb" x="590.835427" y="245.487359" style="fill: #1f77b4; stroke: #1f77b4"/>
     <use xlink:href="#m3d4546f7fb" x="608.008379" y="245.502898" style="fill: #1f77b4; stroke: #1f77b4"/>
     <use xlink:href="#m3d4546f7fb" x="625.181331" y="245.529294" style="fill: #1f77b4; stroke: #1f77b4"/>
     <use xlink:href="#m3d4546f7fb" x="642.354283" y="245.535488" style="fill: #1f77b4; stroke: #1f77b4"/>
     <use xlink:href="#m3d4546f7fb" x="659.527236" y="245.537038" style="fill: #1f77b4; stroke: #1f77b4"/>
     <use xlink:href="#m3d4546f7fb" x="676.700188" y="245.537948" style="fill: #1f77b4; stroke: #1f77b4"/>
    </g>
   </g>
   <g id="line2d_46">
    <path d="M 92.819812 245.534906 
L 109.992764 245.182415 
L 127.165717 244.994379 
L 144.338669 244.361772 
L 161.511621 243.772598 
L 178.684573 242.725841 
L 195.857525 242.367846 
L 213.030478 240.383886 
L 230.20343 233.067322 
L 247.376382 222.808278 
L 264.549334 218.92778 
L 281.722287 191.948315 
L 298.895239 134.943015 
L 316.068191 83.862832 
L 333.241143 109.908609 
L 350.414096 130.975791 
L 367.587048 114.862578 
L 384.76 103.551321 
L 401.932952 161.231317 
L 419.105904 211.021234 
L 436.278857 214.54184 
L 453.451809 216.284205 
L 470.624761 230.67406 
L 487.797713 235.564121 
L 504.970666 237.292046 
L 522.143618 241.401235 
L 539.31657 243.298066 
L 556.489522 244.589401 
L 573.662475 244.885857 
L 590.835427 244.869054 
L 608.008379 245.302517 
L 625.181331 245.537248 
L 642.354283 245.538539 
L 659.527236 245.539324 
L 676.700188 245.49423 
" clip-path="url(#p9211aac0ff)" style="fill: none; stroke: #ff7f0e; stroke-width: 1.5; stroke-linecap: square"/>
    <defs>
     <path id="mf1b3793cb4" d="M 0 3 
C 0.795609 3 1.55874 2.683901 2.12132 2.12132 
C 2.683901 1.55874 3 0.795609 3 0 
C 3 -0.795609 2.683901 -1.55874 2.12132 -2.12132 
C 1.55874 -2.683901 0.795609 -3 0 -3 
C -0.795609 -3 -1.55874 -2.683901 -2.12132 -2.12132 
C -2.683901 -1.55874 -3 -0.795609 -3 0 
C -3 0.795609 -2.683901 1.55874 -2.12132 2.12132 
C -1.55874 2.683901 -0.795609 3 0 3 
z
" style="stroke: #ff7f0e"/>
    </defs>
    <g clip-path="url(#p9211aac0ff)">
     <use xlink:href="#mf1b3793cb4" x="92.819812" y="245.534906" style="fill: #ff7f0e; stroke: #ff7f0e"/>
     <use xlink:href="#mf1b3793cb4" x="109.992764" y="245.182415" style="fill: #ff7f0e; stroke: #ff7f0e"/>
     <use xlink:href="#mf1b3793cb4" x="127.165717" y="244.994379" style="fill: #ff7f0e; stroke: #ff7f0e"/>
     <use xlink:href="#mf1b3793cb4" x="144.338669" y="244.361772" style="fill: #ff7f0e; stroke: #ff7f0e"/>
     <use xlink:href="#mf1b3793cb4" x="161.511621" y="243.772598" style="fill: #ff7f0e; stroke: #ff7f0e"/>
     <use xlink:href="#mf1b3793cb4" x="178.684573" y="242.725841" style="fill: #ff7f0e; stroke: #ff7f0e"/>
     <use xlink:href="#mf1b3793cb4" x="195.857525" y="242.367846" style="fill: #ff7f0e; stroke: #ff7f0e"/>
     <use xlink:href="#mf1b3793cb4" x="213.030478" y="240.383886" style="fill: #ff7f0e; stroke: #ff7f0e"/>
     <use xlink:href="#mf1b3793cb4" x="230.20343" y="233.067322" style="fill: #ff7f0e; stroke: #ff7f0e"/>
     <use xlink:href="#mf1b3793cb4" x="247.376382" y="222.808278" style="fill: #ff7f0e; stroke: #ff7f0e"/>
     <use xlink:href="#mf1b3793cb4" x="264.549334" y="218.92778" style="fill: #ff7f0e; stroke: #ff7f0e"/>
     <use xlink:href="#mf1b3793cb4" x="281.722287" y="191.948315" style="fill: #ff7f0e; stroke: #ff7f0e"/>
     <use xlink:href="#mf1b3793cb4" x="298.895239" y="134.943015" style="fill: #ff7f0e; stroke: #ff7f0e"/>
     <use xlink:href="#mf1b3793cb4" x="316.068191" y="83.862832" style="fill: #ff7f0e; stroke: #ff7f0e"/>
     <use xlink:href="#mf1b3793cb4" x="333.241143" y="109.908609" style="fill: #ff7f0e; stroke: #ff7f0e"/>
     <use xlink:href="#mf1b3793cb4" x="350.414096" y="130.975791" style="fill: #ff7f0e; stroke: #ff7f0e"/>
     <use xlink:href="#mf1b3793cb4" x="367.587048" y="114.862578" style="fill: #ff7f0e; stroke: #ff7f0e"/>
     <use xlink:href="#mf1b3793cb4" x="384.76" y="103.551321" style="fill: #ff7f0e; stroke: #ff7f0e"/>
     <use xlink:href="#mf1b3793cb4" x="401.932952" y="161.231317" style="fill: #ff7f0e; stroke: #ff7f0e"/>
     <use xlink:href="#mf1b3793cb4" x="419.105904" y="211.021234" style="fill: #ff7f0e; stroke: #ff7f0e"/>
     <use xlink:href="#mf1b3793cb4" x="436.278857" y="214.54184" style="fill: #ff7f0e; stroke: #ff7f0e"/>
     <use xlink:href="#mf1b3793cb4" x="453.451809" y="216.284205" style="fill: #ff7f0e; stroke: #ff7f0e"/>
     <use xlink:href="#mf1b3793cb4" x="470.624761" y="230.67406" style="fill: #ff7f0e; stroke: #ff7f0e"/>
     <use xlink:href="#mf1b3793cb4" x="487.797713" y="235.564121" style="fill: #ff7f0e; stroke: #ff7f0e"/>
     <use xlink:href="#mf1b3793cb4" x="504.970666" y="237.292046" style="fill: #ff7f0e; stroke: #ff7f0e"/>
     <use xlink:href="#mf1b3793cb4" x="522.143618" y="241.401235" style="fill: #ff7f0e; stroke: #ff7f0e"/>
     <use xlink:href="#mf1b3793cb4" x="539.31657" y="243.298066" style="fill: #ff7f0e; stroke: #ff7f0e"/>
     <use xlink:href="#mf1b3793cb4" x="556.489522" y="244.589401" style="fill: #ff7f0e; stroke: #ff7f0e"/>
     <use xlink:href="#mf1b3793cb4" x="573.662475" y="244.885857" style="fill: #ff7f0e; stroke: #ff7f0e"/>
     <use xlink:href="#mf1b3793cb4" x="590.835427" y="244.869054" style="fill: #ff7f0e; stroke: #ff7f0e"/>
     <use xlink:href="#mf1b3793cb4" x="608.008379" y="245.302517" style="fill: #ff7f0e; stroke: #ff7f0e"/>
     <use xlink:href="#mf1b3793cb4" x="625.181331" y="245.537248" style="fill: #ff7f0e; stroke: #ff7f0e"/>
     <use xlink:href="#mf1b3793cb4" x="642.354283" y="245.538539" style="fill: #ff7f0e; stroke: #ff7f0e"/>
     <use xlink:href="#mf1b3793cb4" x="659.527236" y="245.539324" style="fill: #ff7f0e; stroke: #ff7f0e"/>
     <use xlink:href="#mf1b3793cb4" x="676.700188" y="245.49423" style="fill: #ff7f0e; stroke: #ff7f0e"/>
    </g>
   </g>
   <g id="line2d_47">
    <path d="M 92.819812 245.539998 
L 109.992764 245.53998 
L 127.165717 245.539841 
L 144.338669 245.538897 
L 161.511621 245.533382 
L 178.684573 245.505651 
L 195.857525 245.385821 
L 213.030478 244.941492 
L 230.20343 243.530676 
L 247.376382 239.706022 
L 264.549334 230.890785 
L 281.722287 213.727434 
L 298.895239 185.79277 
L 316.068191 148.49535 
L 333.241143 109.219816 
L 350.414096 79.931176 
L 367.587048 71.543094 
L 384.76 87.439107 
L 401.932952 121.29988 
L 419.105904 161.104682 
L 436.278857 195.91264 
L 453.451809 220.313736 
L 470.624761 234.450309 
L 487.797713 241.323805 
L 504.970666 244.153702 
L 522.143618 245.14579 
L 539.31657 245.443053 
L 556.489522 245.519381 
L 573.662475 245.536207 
L 590.835427 245.539397 
L 608.008379 245.539917 
L 625.181331 245.53999 
L 642.354283 245.539999 
L 659.527236 245.54 
L 676.700188 245.54 
" clip-path="url(#p9211aac0ff)" style="fill: none; stroke: #d62728; stroke-width: 1.5; stroke-linecap: square"/>
    <defs>
     <path id="md95980c495" d="M 0 3 
C 0.795609 3 1.55874 2.683901 2.12132 2.12132 
C 2.683901 1.55874 3 0.795609 3 0 
C 3 -0.795609 2.683901 -1.55874 2.12132 -2.12132 
C 1.55874 -2.683901 0.795609 -3 0 -3 
C -0.795609 -3 -1.55874 -2.683901 -2.12132 -2.12132 
C -2.683901 -1.55874 -3 -0.795609 -3 0 
C -3 0.795609 -2.683901 1.55874 -2.12132 2.12132 
C -1.55874 2.683901 -0.795609 3 0 3 
z
" style="stroke: #d62728"/>
    </defs>
    <g clip-path="url(#p9211aac0ff)">
     <use xlink:href="#md95980c495" x="92.819812" y="245.539998" style="fill: #d62728; stroke: #d62728"/>
     <use xlink:href="#md95980c495" x="109.992764" y="245.53998" style="fill: #d62728; stroke: #d62728"/>
     <use xlink:href="#md95980c495" x="127.165717" y="245.539841" style="fill: #d62728; stroke: #d62728"/>
     <use xlink:href="#md95980c495" x="144.338669" y="245.538897" style="fill: #d62728; stroke: #d62728"/>
     <use xlink:href="#md95980c495" x="161.511621" y="245.533382" style="fill: #d62728; stroke: #d62728"/>
     <use xlink:href="#md95980c495" x="178.684573" y="245.505651" style="fill: #d62728; stroke: #d62728"/>
     <use xlink:href="#md95980c495" x="195.857525" y="245.385821" style="fill: #d62728; stroke: #d62728"/>
     <use xlink:href="#md95980c495" x="213.030478" y="244.941492" style="fill: #d62728; stroke: #d62728"/>
     <use xlink:href="#md95980c495" x="230.20343" y="243.530676" style="fill: #d62728; stroke: #d62728"/>
     <use xlink:href="#md95980c495" x="247.376382" y="239.706022" style="fill: #d62728; stroke: #d62728"/>
     <use xlink:href="#md95980c495" x="264.549334" y="230.890785" style="fill: #d62728; stroke: #d62728"/>
     <use xlink:href="#md95980c495" x="281.722287" y="213.727434" style="fill: #d62728; stroke: #d62728"/>
     <use xlink:href="#md95980c495" x="298.895239" y="185.79277" style="fill: #d62728; stroke: #d62728"/>
     <use xlink:href="#md95980c495" x="316.068191" y="148.49535" style="fill: #d62728; stroke: #d62728"/>
     <use xlink:href="#md95980c495" x="333.241143" y="109.219816" style="fill: #d62728; stroke: #d62728"/>
     <use xlink:href="#md95980c495" x="350.414096" y="79.931176" style="fill: #d62728; stroke: #d62728"/>
     <use xlink:href="#md95980c495" x="367.587048" y="71.543094" style="fill: #d62728; stroke: #d62728"/>
     <use xlink:href="#md95980c495" x="384.76" y="87.439107" style="fill: #d62728; stroke: #d62728"/>
     <use xlink:href="#md95980c495" x="401.932952" y="121.29988" style="fill: #d62728; stroke: #d62728"/>
     <use xlink:href="#md95980c495" x="419.105904" y="161.104682" style="fill: #d62728; stroke: #d62728"/>
     <use xlink:href="#md95980c495" x="436.278857" y="195.91264" style="fill: #d62728; stroke: #d62728"/>
     <use xlink:href="#md95980c495" x="453.451809" y="220.313736" style="fill: #d62728; stroke: #d62728"/>
     <use xlink:href="#md95980c495" x="470.624761" y="234.450309" style="fill: #d62728; stroke: #d62728"/>
     <use xlink:href="#md95980c495" x="487.797713" y="241.323805" style="fill: #d62728; stroke: #d62728"/>
     <use xlink:href="#md95980c495" x="504.970666" y="244.153702" style="fill: #d62728; stroke: #d62728"/>
     <use xlink:href="#md95980c495" x="522.143618" y="245.14579" style="fill: #d62728; stroke: #d62728"/>
     <use xlink:href="#md95980c495" x="539.31657" y="245.443053" style="fill: #d62728; stroke: #d62728"/>
     <use xlink:href="#md95980c495" x="556.489522" y="245.519381" style="fill: #d62728; stroke: #d62728"/>
     <use xlink:href="#md95980c495" x="573.662475" y="245.536207" style="fill: #d62728; stroke: #d62728"/>
     <use xlink:href="#md95980c495" x="590.835427" y="245.539397" style="fill: #d62728; stroke: #d62728"/>
     <use xlink:href="#md95980c495" x="608.008379" y="245.539917" style="fill: #d62728; stroke: #d62728"/>
     <use xlink:href="#md95980c495" x="625.181331" y="245.53999" style="fill: #d62728; stroke: #d62728"/>
     <use xlink:href="#md95980c495" x="642.354283" y="245.539999" style="fill: #d62728; stroke: #d62728"/>
     <use xlink:href="#md95980c495" x="659.527236" y="245.54" style="fill: #d62728; stroke: #d62728"/>
     <use xlink:href="#md95980c495" x="676.700188" y="245.54" style="fill: #d62728; stroke: #d62728"/>
    </g>
   </g>
   <g id="patch_38">
    <path d="M 60.32 245.54 
L 60.32 10.8 
" style="fill: none; stroke: #000000; stroke-width: 0.8; stroke-linejoin: miter; stroke-linecap: square"/>
   </g>
   <g id="patch_39">
    <path d="M 709.2 245.54 
L 709.2 10.8 
" style="fill: none; stroke: #000000; stroke-width: 0.8; stroke-linejoin: miter; stroke-linecap: square"/>
   </g>
   <g id="patch_40">
    <path d="M 60.32 245.54 
L 709.2 245.54 
" style="fill: none; stroke: #000000; stroke-width: 0.8; stroke-linejoin: miter; stroke-linecap: square"/>
   </g>
   <g id="patch_41">
    <path d="M 60.32 10.8 
L 709.2 10.8 
" style="fill: none; stroke: #000000; stroke-width: 0.8; stroke-linejoin: miter; stroke-linecap: square"/>
   </g>
   <g id="legend_1">
    <g id="patch_42">
     <path d="M 596.542188 77.5125 
L 702.2 77.5125 
Q 704.2 77.5125 704.2 75.5125 
L 704.2 17.8 
Q 704.2 15.8 702.2 15.8 
L 596.542188 15.8 
Q 594.542188 15.8 594.542188 17.8 
L 594.542188 75.5125 
Q 594.542188 77.5125 596.542188 77.5125 
z
" style="fill: #ffffff; opacity: 0.8; stroke: #cccccc; stroke-linejoin: miter"/>
    </g>
    <g id="line2d_48">
     <path d="M 598.542188 23.898438 
L 608.542188 23.898438 
L 618.542188 23.898438 
" style="fill: none; stroke: #1f77b4; stroke-width: 1.5; stroke-linecap: square"/>
     <g>
      <use xlink:href="#m3d4546f7fb" x="608.542188" y="23.898438" style="fill: #1f77b4; stroke: #1f77b4"/>
     </g>
    </g>
    <g id="text_46">
     <!-- TDM (Poisson) -->
     <g transform="translate(626.542188 27.398438) scale(0.1 -0.1)">
      <defs>
       <path id="DejaVuSans-54" d="M -19 4666 
L 3928 4666 
L 3928 4134 
L 2272 4134 
L 2272 0 
L 1638 0 
L 1638 4134 
L -19 4134 
L -19 4666 
z
" transform="scale(0.015625)"/>
       <path id="DejaVuSans-4d" d="M 628 4666 
L 1569 4666 
L 2759 1491 
L 3956 4666 
L 4897 4666 
L 4897 0 
L 4281 0 
L 4281 4097 
L 3078 897 
L 2444 897 
L 1241 4097 
L 1241 0 
L 628 0 
L 628 4666 
z
" transform="scale(0.015625)"/>
       <path id="DejaVuSans-28" d="M 1984 4856 
Q 1566 4138 1362 3434 
Q 1159 2731 1159 2009 
Q 1159 1288 1364 580 
Q 1569 -128 1984 -844 
L 1484 -844 
Q 1016 -109 783 600 
Q 550 1309 550 2009 
Q 550 2706 781 3412 
Q 1013 4119 1484 4856 
L 1984 4856 
z
" transform="scale(0.015625)"/>
       <path id="DejaVuSans-50" d="M 1259 4147 
L 1259 2394 
L 2053 2394 
Q 2494 2394 2734 2622 
Q 2975 2850 2975 3272 
Q 2975 3691 2734 3919 
Q 2494 4147 2053 4147 
L 1259 4147 
z
M 628 4666 
L 2053 4666 
Q 2838 4666 3239 4311 
Q 3641 3956 3641 3272 
Q 3641 2581 3239 2228 
Q 2838 1875 2053 1875 
L 1259 1875 
L 1259 0 
L 628 0 
L 628 4666 
z
" transform="scale(0.015625)"/>
       <path id="DejaVuSans-73" d="M 2834 3397 
L 2834 2853 
Q 2591 2978 2328 3040 
Q 2066 3103 1784 3103 
Q 1356 3103 1142 2972 
Q 928 2841 928 2578 
Q 928 2378 1081 2264 
Q 1234 2150 1697 2047 
L 1894 2003 
Q 2506 1872 2764 1633 
Q 3022 1394 3022 966 
Q 3022 478 2636 193 
Q 2250 -91 1575 -91 
Q 1294 -91 989 -36 
Q 684 19 347 128 
L 347 722 
Q 666 556 975 473 
Q 1284 391 1588 391 
Q 1994 391 2212 530 
Q 2431 669 2431 922 
Q 2431 1156 2273 1281 
Q 2116 1406 1581 1522 
L 1381 1569 
Q 847 1681 609 1914 
Q 372 2147 372 2553 
Q 372 3047 722 3315 
Q 1072 3584 1716 3584 
Q 2034 3584 2315 3537 
Q 2597 3491 2834 3397 
z
" transform="scale(0.015625)"/>
       <path id="DejaVuSans-6e" d="M 3513 2113 
L 3513 0 
L 2938 0 
L 2938 2094 
Q 2938 2591 2744 2837 
Q 2550 3084 2163 3084 
Q 1697 3084 1428 2787 
Q 1159 2491 1159 1978 
L 1159 0 
L 581 0 
L 581 3500 
L 1159 3500 
L 1159 2956 
Q 1366 3272 1645 3428 
Q 1925 3584 2291 3584 
Q 2894 3584 3203 3211 
Q 3513 2838 3513 2113 
z
" transform="scale(0.015625)"/>
       <path id="DejaVuSans-29" d="M 513 4856 
L 1013 4856 
Q 1481 4119 1714 3412 
Q 1947 2706 1947 2009 
Q 1947 1309 1714 600 
Q 1481 -109 1013 -844 
L 513 -844 
Q 928 -128 1133 580 
Q 1338 1288 1338 2009 
Q 1338 2731 1133 3434 
Q 928 4138 513 4856 
z
" transform="scale(0.015625)"/>
      </defs>
      <use xlink:href="#DejaVuSans-54"/>
      <use xlink:href="#DejaVuSans-44" x="61.083984"/>
      <use xlink:href="#DejaVuSans-4d" x="138.085938"/>
      <use xlink:href="#DejaVuSans-20" x="224.365234"/>
      <use xlink:href="#DejaVuSans-28" x="256.152344"/>
      <use xlink:href="#DejaVuSans-50" x="295.166016"/>
      <use xlink:href="#DejaVuSans-6f" x="351.84375"/>
      <use xlink:href="#DejaVuSans-69" x="413.025391"/>
      <use xlink:href="#DejaVuSans-73" x="440.808594"/>
      <use xlink:href="#DejaVuSans-73" x="492.908203"/>
      <use xlink:href="#DejaVuSans-6f" x="545.007812"/>
      <use xlink:href="#DejaVuSans-6e" x="606.189453"/>
      <use xlink:href="#DejaVuSans-29" x="669.568359"/>
     </g>
    </g>
    <g id="line2d_49">
     <path d="M 598.542188 38.576563 
L 608.542188 38.576563 
L 618.542188 38.576563 
" style="fill: none; stroke: #ff7f0e; stroke-width: 1.5; stroke-linecap: square"/>
     <g>
      <use xlink:href="#mf1b3793cb4" x="608.542188" y="38.576563" style="fill: #ff7f0e; stroke: #ff7f0e"/>
     </g>
    </g>
    <g id="text_47">
     <!-- Static baseline -->
     <g transform="translate(626.542188 42.076563) scale(0.1 -0.1)">
      <defs>
       <path id="DejaVuSans-53" d="M 3425 4513 
L 3425 3897 
Q 3066 4069 2747 4153 
Q 2428 4238 2131 4238 
Q 1616 4238 1336 4038 
Q 1056 3838 1056 3469 
Q 1056 3159 1242 3001 
Q 1428 2844 1947 2747 
L 2328 2669 
Q 3034 2534 3370 2195 
Q 3706 1856 3706 1288 
Q 3706 609 3251 259 
Q 2797 -91 1919 -91 
Q 1588 -91 1214 -16 
Q 841 59 441 206 
L 441 856 
Q 825 641 1194 531 
Q 1563 422 1919 422 
Q 2459 422 2753 634 
Q 3047 847 3047 1241 
Q 3047 1584 2836 1778 
Q 2625 1972 2144 2069 
L 1759 2144 
Q 1053 2284 737 2584 
Q 422 2884 422 3419 
Q 422 4038 858 4394 
Q 1294 4750 2059 4750 
Q 2388 4750 2728 4690 
Q 3069 4631 3425 4513 
z
" transform="scale(0.015625)"/>
       <path id="DejaVuSans-63" d="M 3122 3366 
L 3122 2828 
Q 2878 2963 2633 3030 
Q 2388 3097 2138 3097 
Q 1578 3097 1268 2742 
Q 959 2388 959 1747 
Q 959 1106 1268 751 
Q 1578 397 2138 397 
Q 2388 397 2633 464 
Q 2878 531 3122 666 
L 3122 134 
Q 2881 22 2623 -34 
Q 2366 -91 2075 -91 
Q 1284 -91 818 406 
Q 353 903 353 1747 
Q 353 2603 823 3093 
Q 1294 3584 2113 3584 
Q 2378 3584 2631 3529 
Q 2884 3475 3122 3366 
z
" transform="scale(0.015625)"/>
      </defs>
      <use xlink:href="#DejaVuSans-53"/>
      <use xlink:href="#DejaVuSans-74" x="63.476562"/>
      <use xlink:href="#DejaVuSans-61" x="102.685547"/>
      <use xlink:href="#DejaVuSans-74" x="163.964844"/>
      <use xlink:href="#DejaVuSans-69" x="203.173828"/>
      <use xlink:href="#DejaVuSans-63" x="230.957031"/>
      <use xlink:href="#DejaVuSans-20" x="285.9375"/>
      <use xlink:href="#DejaVuSans-62" x="317.724609"/>
      <use xlink:href="#DejaVuSans-61" x="381.201172"/>
      <use xlink:href="#DejaVuSans-73" x="442.480469"/>
      <use xlink:href="#DejaVuSans-65" x="494.580078"/>
      <use xlink:href="#DejaVuSans-6c" x="556.103516"/>
      <use xlink:href="#DejaVuSans-69" x="583.886719"/>
      <use xlink:href="#DejaVuSans-6e" x="611.669922"/>
      <use xlink:href="#DejaVuSans-65" x="675.048828"/>
     </g>
    </g>
    <g id="line2d_50">
     <path d="M 598.542188 53.254688 
L 608.542188 53.254688 
L 618.542188 53.254688 
" style="fill: none; stroke: #d62728; stroke-width: 1.5; stroke-linecap: square"/>
     <g>
      <use xlink:href="#md95980c495" x="608.542188" y="53.254688" style="fill: #d62728; stroke: #d62728"/>
     </g>
    </g>
    <g id="text_48">
     <!-- Gaussian -->
     <g transform="translate(626.542188 56.754688) scale(0.1 -0.1)">
      <defs>
       <path id="DejaVuSans-75" d="M 544 1381 
L 544 3500 
L 1119 3500 
L 1119 1403 
Q 1119 906 1312 657 
Q 1506 409 1894 409 
Q 2359 409 2629 706 
Q 2900 1003 2900 1516 
L 2900 3500 
L 3475 3500 
L 3475 0 
L 2900 0 
L 2900 538 
Q 2691 219 2414 64 
Q 2138 -91 1772 -91 
Q 1169 -91 856 284 
Q 544 659 544 1381 
z
M 1991 3584 
L 1991 3584 
z
" transform="scale(0.015625)"/>
      </defs>
      <use xlink:href="#DejaVuSans-47"/>
      <use xlink:href="#DejaVuSans-61" x="77.490234"/>
      <use xlink:href="#DejaVuSans-75" x="138.769531"/>
      <use xlink:href="#DejaVuSans-73" x="202.148438"/>
      <use xlink:href="#DejaVuSans-73" x="254.248047"/>
      <use xlink:href="#DejaVuSans-69" x="306.347656"/>
      <use xlink:href="#DejaVuSans-61" x="334.130859"/>
      <use xlink:href="#DejaVuSans-6e" x="395.410156"/>
     </g>
    </g>
    <g id="patch_43">
     <path d="M 598.542188 71.432813 
L 618.542188 71.432813 
L 618.542188 64.432813 
L 598.542188 64.432813 
z
" style="fill: #808080; opacity: 0.6"/>
    </g>
    <g id="text_49">
     <!-- Empirical -->
     <g transform="translate(626.542188 71.432813) scale(0.1 -0.1)">
      <use xlink:href="#DejaVuSans-45"/>
      <use xlink:href="#DejaVuSans-6d" x="63.183594"/>
      <use xlink:href="#DejaVuSans-70" x="160.595703"/>
      <use xlink:href="#DejaVuSans-69" x="224.072266"/>
      <use xlink:href="#DejaVuSans-72" x="251.855469"/>
      <use xlink:href="#DejaVuSans-69" x="292.96875"/>
      <use xlink:href="#DejaVuSans-63" x="320.751953"/>
      <use xlink:href="#DejaVuSans-61" x="375.732422"/>
      <use xlink:href="#DejaVuSans-6c" x="437.011719"/>
     </g>
    </g>
   </g>
  </g>
 </g>
 <defs>
  <clipPath id="p9211aac0ff">
   <rect x="60.32" y="10.8" width="648.88" height="234.74"/>
  </clipPath>
 </defs>
</svg>
